<?xml version="1.0" standalone="no"?>
<!DOCTYPE svg PUBLIC "-//W3C//DTD SVG 20010904//EN"
 "http://www.w3.org/TR/2001/REC-SVG-20010904/DTD/svg10.dtd">
<svg version="1.0" xmlns="http://www.w3.org/2000/svg"
 width="400.000000pt" height="400.000000pt" viewBox="0 0 400.000000 400.000000"
 preserveAspectRatio="xMidYMid meet">

<g transform="translate(0.000000,400.000000) scale(0.100000,-0.100000)"
fill="#000000" stroke="none">
<path d="M2572 3598 c-71 -109 -201 -230 -297 -277 -36 -17 -40 -17 -112 0
-238 57 -484 46 -715 -31 -91 -31 -214 -91 -273 -135 -16 -12 -47 -25 -68 -28
-99 -16 -201 -98 -253 -202 -23 -48 -29 -74 -30 -132 -1 -51 -10 -99 -34 -171
l-33 -100 -71 -36 c-164 -81 -304 -263 -358 -465 -29 -110 -36 -321 -14 -428
9 -45 25 -101 35 -125 18 -43 18 -43 -8 -98 -33 -72 -36 -208 -7 -285 54 -143
203 -256 261 -198 14 13 16 27 11 67 -3 28 -9 111 -12 183 l-7 133 59 0 59 0
23 -94 c46 -194 118 -321 262 -466 224 -224 500 -332 850 -331 191 0 344 32
520 110 101 46 550 189 688 221 69 16 168 32 221 36 110 8 131 15 131 48 0 42
-86 96 -152 96 -44 0 -8 22 110 68 70 27 145 55 167 62 64 20 152 68 159 85
12 31 6 51 -21 77 -16 15 -41 32 -56 37 -48 18 -141 13 -222 -13 -41 -13 -75
-21 -75 -17 0 4 18 25 40 46 42 41 52 78 24 89 -31 12 -86 6 -137 -16 -56 -23
-184 -107 -212 -138 -30 -33 -34 -23 -14 33 10 28 26 78 34 109 13 45 21 57
38 60 28 4 56 59 70 142 l11 64 21 -32 c25 -38 46 -40 62 -4 43 88 41 271 -3
411 -4 12 13 -4 38 -33 49 -60 92 -84 109 -60 18 26 3 160 -26 240 -46 125
-134 270 -211 348 -111 110 81 -25 208 -147 37 -35 51 -42 60 -33 19 19 -16
143 -74 262 -43 86 -65 118 -128 180 -81 82 -197 160 -279 189 -28 10 -54 21
-58 24 -3 4 34 49 83 100 113 116 148 160 181 233 42 93 41 243 -2 248 -5 0
-25 -28 -42 -64 -61 -121 -229 -247 -395 -295 -58 -16 -98 -10 -98 16 0 6 30
41 68 78 73 74 194 159 278 198 29 13 56 28 59 33 11 17 -38 32 -105 32 -79 0
-159 -21 -242 -63 -31 -16 -59 -29 -61 -29 -2 0 7 33 21 72 26 78 26 139 -1
165 -12 12 -19 6 -55 -49z m-492 -283 c86 -15 176 -41 184 -53 2 -4 -20 -5
-49 -4 -87 6 -208 -23 -312 -73 -119 -58 -209 -143 -256 -243 -29 -61 -32 -76
-32 -162 0 -104 10 -134 65 -189 l32 -31 -59 0 c-106 0 -155 22 -249 111 -103
96 -163 129 -237 129 -59 0 -106 -16 -150 -50 -17 -13 11 30 64 101 111 150
143 214 134 267 l-6 38 78 41 c94 50 231 97 339 117 107 19 347 20 454 1z m51
-222 c38 -12 69 -32 104 -68 101 -100 99 -236 -4 -293 -94 -53 -201 -33 -288
54 -134 134 -71 314 113 323 12 1 46 -7 75 -16z m-1103 -64 c-62 -65 -168
-217 -168 -240 0 -8 -3 -9 -9 -3 -13 12 3 83 29 134 27 53 115 138 164 160 23
9 42 17 43 16 1 -1 -25 -31 -59 -67z m232 -279 c20 -10 74 -53 120 -95 88 -80
114 -98 170 -111 19 -4 161 -8 315 -9 240 0 291 -3 355 -19 203 -51 299 -133
288 -246 -7 -75 -43 -136 -96 -168 l-47 -27 -214 3 c-233 3 -320 -6 -446 -45
-233 -73 -429 -221 -672 -508 -83 -98 -159 -164 -220 -192 -50 -23 -140 -43
-195 -43 -27 0 -28 2 -28 54 0 58 -7 86 -21 86 -14 0 -9 -312 5 -415 14 -96
10 -115 -28 -115 -56 0 -149 98 -186 197 -53 140 6 345 105 364 10 2 20 10 23
17 5 17 -33 15 -70 -4 -36 -19 -40 -15 -62 61 -23 81 -27 118 -27 241 0 159
21 256 81 379 79 160 204 282 333 326 73 25 82 17 51 -44 -39 -77 -56 -129
-45 -140 7 -7 14 0 22 19 64 156 155 309 225 377 88 86 172 104 264 57z m-382
-165 c-32 -49 -49 -65 -66 -65 -21 0 -23 3 -17 33 10 42 13 47 34 47 9 0 32
11 51 25 19 14 35 25 37 25 2 0 -16 -29 -39 -65z m1771 54 c226 -19 404 -106
524 -256 111 -138 186 -303 194 -425 4 -54 2 -78 -5 -78 -15 0 -99 102 -163
196 -44 65 -69 90 -69 67 0 -5 18 -44 40 -88 60 -119 84 -226 77 -350 -2 -55
-10 -113 -16 -129 -10 -26 -14 -28 -26 -15 -8 8 -27 58 -42 112 -27 96 -53
127 -43 51 12 -91 5 -249 -13 -288 -29 -65 -38 -33 -25 85 6 58 9 113 5 123
-13 33 -27 5 -27 -53 0 -32 -7 -100 -16 -152 -68 -402 -311 -736 -659 -908
-200 -99 -381 -137 -605 -127 -197 8 -334 43 -511 131 l-75 37 -57 114 c-58
117 -87 144 -87 84 0 -18 -6 -33 -15 -36 -20 -8 -78 37 -121 94 -76 102 -174
342 -174 425 0 19 8 26 38 35 68 21 155 86 246 185 49 53 92 97 96 97 4 0 38
21 76 46 177 117 352 178 478 167 145 -12 252 35 394 172 l93 89 102 1 c143 2
202 33 247 130 41 87 35 163 -18 233 -49 64 -199 129 -344 148 -63 9 -52 15
87 48 173 40 260 48 414 35z m-612 -675 c-111 -108 -184 -145 -297 -152 -45
-3 -92 0 -113 7 -32 11 -107 80 -107 99 0 4 24 20 53 34 l53 26 16 -28 c38
-67 131 -88 207 -48 55 29 82 63 84 111 l2 37 95 0 95 -1 -88 -85z m-546 -170
c-36 -11 -97 -35 -135 -52 -37 -18 -73 -29 -79 -25 -5 3 -7 2 -4 -4 3 -5 -13
-20 -36 -33 l-42 -23 20 23 c49 56 213 186 233 184 7 -1 11 0 8 4 -3 3 2 11
12 18 15 11 22 7 53 -29 l37 -42 -67 -21z"/>
<path d="M1140 2541 c-43 -13 -103 -56 -151 -108 -41 -43 -79 -100 -79 -118 0
-15 35 -1 81 32 28 20 90 57 137 82 102 55 117 74 83 102 -25 20 -32 21 -71
10z"/>
<path d="M1669 1296 c-38 -58 -71 -86 -100 -86 -6 0 -35 26 -66 58 l-55 57 5
-57 c6 -63 63 -207 109 -276 34 -49 71 -77 93 -68 38 14 86 203 89 344 1 114
-14 120 -75 28z"/>
<path d="M1070 1250 c-16 -32 -40 -65 -52 -71 -19 -10 -25 -8 -47 19 -14 17
-33 41 -42 54 -10 13 -21 19 -25 15 -27 -26 73 -269 126 -307 39 -28 57 -17
76 44 17 56 30 239 20 280 -10 40 -23 32 -56 -34z"/>
<path d="M2065 848 c-11 -6 -35 -24 -53 -40 -43 -37 -63 -35 -86 7 -23 42 -33
44 -47 8 -22 -57 20 -243 54 -243 40 0 167 195 167 258 0 25 -6 26 -35 10z"/>
<path d="M1478 788 c-13 -23 -28 -43 -34 -45 -6 -2 -28 12 -49 32 -45 41 -70
46 -59 13 17 -57 122 -211 155 -228 61 -33 76 5 60 149 -14 129 -33 150 -73
79z"/>
<path d="M1403 1815 c0 -8 4 -12 9 -9 5 3 6 10 3 15 -9 13 -12 11 -12 -6z"/>
<path d="M1433 1805 c0 -8 4 -12 9 -9 5 3 6 10 3 15 -9 13 -12 11 -12 -6z"/>
</g>
</svg>
