<?xml version="1.0" standalone="no"?>
<!DOCTYPE svg PUBLIC "-//W3C//DTD SVG 20010904//EN"
 "http://www.w3.org/TR/2001/REC-SVG-20010904/DTD/svg10.dtd">
<svg version="1.0" xmlns="http://www.w3.org/2000/svg"
 width="800.000000pt" height="433.000000pt" viewBox="0 0 800.000000 433.000000"
 preserveAspectRatio="xMidYMid meet">

<g transform="translate(0.000000,433.000000) scale(0.100000,-0.100000)"
fill="#000000" stroke="none">
<path d="M4328 4280 c19 -8 21 -13 12 -29 -12 -24 -49 -51 -68 -51 -12 0 -12
3 -1 17 13 16 12 16 -9 1 -13 -9 -33 -14 -45 -12 -58 10 81 -26 180 -47 116
-24 136 -39 55 -39 -26 -1 -71 -6 -101 -13 l-54 -13 41 -13 c23 -8 39 -18 36
-22 -3 -5 2 -9 10 -9 25 0 19 15 -11 30 -28 14 -28 14 26 24 43 7 63 6 95 -6
76 -28 81 -29 41 -7 -29 17 -35 24 -22 27 39 8 1 42 -48 42 -14 0 -46 5 -71
11 l-45 12 30 18 c16 10 35 27 41 39 11 21 10 21 -17 7 -15 -8 -39 -18 -53
-22 -25 -8 -25 -8 -6 13 15 18 16 24 6 37 -7 8 -20 15 -29 14 -11 0 -8 -3 7
-9z m72 -55 c0 -10 -60 -35 -82 -34 -17 0 -11 5 22 19 49 20 60 22 60 15z"/>
<path d="M4278 4273 c7 -3 16 -2 19 1 4 3 -2 6 -13 5 -11 0 -14 -3 -6 -6z"/>
<path d="M4230 4260 c-8 -5 -10 -10 -5 -10 6 0 17 5 25 10 8 5 11 10 5 10 -5
0 -17 -5 -25 -10z"/>
<path d="M6243 4245 c-18 -8 -33 -19 -33 -24 0 -15 34 -31 67 -32 l28 -1 -31
-13 c-25 -11 -45 -12 -95 -4 -86 15 -231 3 -278 -21 -49 -25 -95 -84 -77 -99
25 -21 119 -33 209 -27 78 6 93 4 121 -13 47 -29 103 -35 203 -21 48 7 92 15
96 17 5 3 1 13 -8 24 -16 17 -16 18 10 25 25 6 47 2 150 -25 17 -4 43 -4 59 0
17 5 32 6 35 4 9 -9 -20 -50 -52 -72 -17 -13 -26 -23 -18 -23 22 0 79 68 90
107 12 43 10 47 -30 67 -23 12 -28 12 -20 2 9 -11 -2 -15 -61 -20 -40 -4 -97
-2 -127 4 -29 5 -55 10 -57 10 -14 0 0 19 22 28 27 13 25 35 -3 25 -11 -4 -14
-3 -9 5 4 8 23 10 49 7 l42 -5 -35 10 c-19 6 -43 15 -53 21 -11 6 -47 7 -92 3
-119 -11 -164 11 -82 39 23 9 35 16 27 16 -8 0 -30 -6 -47 -14z m187 -55 c0
-13 -37 -50 -51 -50 -5 0 -8 4 -5 9 3 5 -15 6 -39 3 -55 -6 -59 10 -7 31 43
17 102 22 102 7z m-167 -45 c44 -8 83 -18 88 -21 5 -3 51 -16 102 -29 87 -23
90 -24 44 -25 -26 0 -78 -6 -115 -14 -75 -16 -452 -28 -492 -16 -24 8 -24 8
-2 9 12 1 22 5 22 10 0 5 -17 8 -37 6 -35 -2 -36 -2 -8 5 l30 7 -29 2 c-24 1
-26 3 -16 16 10 12 15 12 35 -1 36 -23 69 -3 61 37 l-5 29 122 0 c67 0 157 -7
200 -15z m-352 -35 c5 0 9 8 9 17 0 13 3 14 12 5 10 -9 8 -16 -5 -29 -16 -16
-18 -16 -33 -1 -10 10 -13 21 -8 30 7 10 9 9 12 -4 2 -10 8 -18 13 -18z m809
-31 c0 -34 -109 -52 -146 -24 -10 8 -17 15 -14 16 3 1 34 6 70 13 66 12 90 11
90 -5z m-291 -52 c8 -11 -5 -16 -72 -24 -84 -12 -159 -5 -180 16 -8 8 13 10
76 10 48 -1 91 1 94 5 12 11 70 6 82 -7z"/>
<path d="M6072 4139 c-13 -5 -27 -7 -32 -4 -4 3 -10 -10 -12 -29 l-4 -33 59 2
c61 3 86 20 87 58 0 13 -8 17 -37 16 -21 0 -49 -4 -61 -10z m88 -5 c0 -3 -5
-14 -10 -25 -8 -14 -21 -19 -55 -19 -57 0 -61 24 -7 38 44 12 72 14 72 6z"/>
<path d="M1399 4233 c-13 -16 -12 -17 4 -4 9 7 17 15 17 17 0 8 -8 3 -21 -13z"/>
<path d="M2835 4214 c-44 -20 -98 -40 -120 -44 l-40 -7 40 -3 c22 -2 54 -2 71
-1 17 1 96 -9 177 -23 80 -14 162 -26 182 -26 51 0 36 -14 -30 -29 -31 -7
-103 -28 -160 -47 -102 -33 -224 -56 -375 -69 -41 -3 -111 -12 -155 -20 -44
-8 -98 -16 -120 -18 l-40 -4 46 -1 c26 -1 82 4 125 12 148 27 194 28 275 7 57
-14 86 -17 120 -11 52 11 161 49 139 50 -9 0 -41 -9 -73 -20 -56 -20 -125 -24
-182 -11 -26 6 -27 8 -10 14 11 3 54 12 95 18 41 6 104 22 139 35 63 24 63 24
106 5 65 -29 64 -40 -2 -36 l-58 4 55 -9 c30 -5 59 -5 64 0 4 4 -10 22 -33 38
l-41 30 66 16 c64 16 68 16 125 -4 70 -24 90 -25 132 -6 18 8 46 18 62 23 79
24 5 94 -96 91 l-54 -1 60 -6 c60 -6 119 -35 112 -54 -2 -6 -33 -21 -69 -34
-64 -21 -69 -22 -119 -7 -39 12 -49 18 -38 25 12 8 11 11 -3 22 -15 12 -13 15
18 26 20 7 34 14 32 16 -2 2 -22 -2 -43 -10 -45 -16 -152 -19 -174 -6 -11 7
-9 10 8 16 11 3 21 13 21 22 0 12 -7 14 -34 9 -31 -6 -34 -5 -29 14 16 59 -58
65 -172 14z m153 14 c7 -7 12 -18 12 -25 0 -20 -52 -41 -90 -38 -19 2 -60 4
-90 5 l-55 1 60 28 c33 15 67 30 75 34 27 10 76 7 88 -5z m66 -58 c-6 -6 -28
-13 -50 -15 l-39 -5 40 14 c49 18 62 19 49 6z"/>
<path d="M3726 4237 c3 -10 9 -15 12 -12 3 3 0 11 -7 18 -10 9 -11 8 -5 -6z"/>
<path d="M3985 4218 c-93 -5 -185 -10 -204 -11 -38 -2 -59 -20 -109 -88 l-32
-44 22 -16 c30 -23 67 -26 246 -15 137 8 156 7 192 -9 22 -10 57 -18 77 -17
53 2 54 12 0 12 -73 0 -108 24 -49 33 15 3 -6 3 -45 1 -301 -15 -383 -17 -383
-6 0 7 11 12 25 12 14 0 25 4 25 9 0 11 -25 21 -51 21 -17 0 -18 3 -9 21 11
19 13 19 29 5 28 -25 69 -20 83 9 9 20 9 28 -2 38 -10 10 -12 9 -8 -3 8 -22
-10 -50 -31 -50 -24 0 -43 23 -35 44 7 17 7 17 44 21 14 2 52 8 85 14 33 6
115 11 183 11 74 0 122 4 122 10 0 6 -1 9 -2 8 -2 0 -79 -5 -173 -10z m-275
-138 c-14 -4 -32 -8 -40 -9 -13 -1 -13 0 0 9 8 5 26 9 40 9 l25 -1 -25 -8z"/>
<path d="M1354 4188 l-19 -23 23 19 c21 18 27 26 19 26 -2 0 -12 -10 -23 -22z"/>
<path d="M3935 4160 c-47 -24 -43 -24 -47 -2 -3 9 -5 -1 -6 -23 l-1 -40 65 3
c55 3 67 7 80 28 35 52 -17 72 -91 34z m95 -2 c0 -28 -33 -48 -82 -48 -26 0
-48 4 -48 10 0 14 71 49 103 50 15 0 27 -5 27 -12z"/>
<path d="M4540 4170 c-17 -6 -7 -7 31 -3 57 5 129 -10 129 -28 0 -11 -90 -69
-109 -69 -8 0 -11 -3 -7 -7 9 -9 114 48 121 66 10 26 -22 45 -82 47 -32 2 -69
-1 -83 -6z"/>
<path d="M3740 4155 c0 -8 7 -15 15 -15 8 0 15 7 15 15 0 8 -7 15 -15 15 -8 0
-15 -7 -15 -15z"/>
<path d="M6538 4163 c7 -3 16 -2 19 1 4 3 -2 6 -13 5 -11 0 -14 -3 -6 -6z"/>
<path d="M2555 4154 c-130 -26 -254 -61 -272 -77 -12 -11 -34 -42 -48 -69 -27
-52 -23 -78 14 -78 14 0 14 2 1 10 -11 7 -2 10 33 10 35 0 47 4 47 15 0 14
-27 20 -72 17 -21 -2 -22 1 -5 31 6 12 13 24 14 25 1 2 11 -6 23 -18 15 -15
27 -19 43 -14 30 9 38 24 33 60 l-4 32 91 21 c51 12 115 25 142 30 41 7 44 9
15 9 -19 0 -44 -2 -55 -4z m-207 -73 c24 -15 10 -56 -19 -59 -37 -4 -53 18
-33 46 16 23 31 27 52 13z m-75 -118 c-7 -2 -21 -2 -30 0 -10 3 -4 5 12 5 17
0 24 -2 18 -5z"/>
<path d="M2310 4060 c0 -11 4 -20 9 -20 11 0 22 26 14 34 -12 12 -23 5 -23
-14z"/>
<path d="M6585 4150 c27 -12 43 -12 25 0 -8 5 -22 9 -30 9 -10 0 -8 -3 5 -9z"/>
<path d="M1306 4115 c-3 -9 -6 -22 -5 -28 0 -7 5 -1 10 12 5 13 8 26 5 28 -2
2 -6 -3 -10 -12z"/>
<path d="M2525 4093 c-33 -15 -61 -27 -62 -27 -1 -1 1 -12 4 -26 4 -25 6 -25
73 -20 38 3 74 10 79 15 6 6 12 26 13 45 3 31 0 35 -22 37 -14 1 -52 -10 -85
-24z m105 8 c0 -5 -4 -21 -9 -34 -9 -23 -16 -26 -75 -29 -83 -4 -86 10 -8 45
59 28 92 34 92 18z"/>
<path d="M4253 4083 c9 -2 23 -2 30 0 6 3 -1 5 -18 5 -16 0 -22 -2 -12 -5z"/>
<path d="M4178 4073 c6 -2 18 -2 25 0 6 3 1 5 -13 5 -14 0 -19 -2 -12 -5z"/>
<path d="M1373 4053 c15 -2 39 -2 55 0 15 2 2 4 -28 4 -30 0 -43 -2 -27 -4z"/>
<path d="M4328 4043 c6 -2 18 -2 25 0 6 3 1 5 -13 5 -14 0 -19 -2 -12 -5z"/>
<path d="M4268 4033 c6 -2 18 -2 25 0 6 3 1 5 -13 5 -14 0 -19 -2 -12 -5z"/>
<path d="M5632 4015 c-45 -14 -77 -37 -93 -67 -7 -13 -1 -26 26 -56 19 -22 31
-43 27 -47 -4 -5 2 -5 13 0 67 26 96 34 110 29 19 -8 19 -17 -2 -43 -17 -20
-20 -20 -81 -6 -35 8 -69 12 -75 8 -13 -8 192 -51 262 -55 28 -2 47 -6 43 -9
-8 -8 -195 -52 -311 -73 -86 -17 -242 -19 -346 -6 -38 4 -48 8 -27 9 46 2 37
25 -11 29 -36 3 -37 3 -21 27 l16 25 18 -22 c15 -20 21 -21 44 -10 18 8 26 19
26 37 0 26 11 31 80 38 24 3 20 4 -15 4 -44 1 -120 -13 -87 -16 17 -1 15 -36
-3 -51 -8 -7 -22 -10 -30 -6 -17 6 -20 41 -5 51 5 3 7 0 4 -8 -7 -18 12 -32
21 -16 4 6 1 17 -7 25 -12 13 -18 12 -39 -9 -34 -33 -69 -76 -69 -85 0 -4 10
-13 22 -21 16 -10 72 -15 205 -17 104 -3 193 -9 207 -15 17 -8 36 -8 63 -1
l38 10 -37 1 c-40 1 -54 21 -15 21 12 1 58 9 102 20 l79 18 41 -24 40 -25 -55
6 c-30 3 -77 1 -105 -4 -49 -9 -49 -9 30 -10 44 0 90 -1 103 -2 38 -2 39 11 2
42 l-35 30 55 -6 c30 -4 74 -9 97 -12 33 -4 52 1 92 23 28 15 51 31 51 35 0 5
-12 16 -26 26 -33 21 -102 24 -132 5 -27 -18 -162 -30 -162 -15 0 6 7 16 15
23 17 14 20 30 4 30 -5 0 -8 -4 -5 -9 7 -11 -32 -46 -42 -37 -4 4 2 14 12 22
11 8 14 14 8 14 -22 0 -12 27 16 46 64 41 66 69 10 112 -46 35 -76 39 -146 17z
m158 -90 c0 -2 -6 -8 -13 -14 -10 -8 -14 -7 -14 2 0 8 6 14 14 14 7 0 13 -1
13 -2z m264 -128 c17 -13 15 -16 -30 -41 -39 -22 -58 -27 -92 -23 -51 6 -59
11 -42 32 7 8 9 15 4 16 -5 0 5 7 21 14 39 18 116 19 139 2z m-881 -84 c-13
-2 -33 -2 -45 0 -13 2 -3 4 22 4 25 0 35 -2 23 -4z"/>
<path d="M3753 3965 c0 -22 2 -30 4 -17 2 12 2 30 0 40 -3 9 -5 -1 -4 -23z"/>
<path d="M4590 3974 c-87 -31 -98 -36 -94 -48 3 -8 18 -16 35 -20 18 -3 29
-12 29 -22 0 -12 -4 -14 -17 -8 -27 13 -135 10 -158 -5 l-20 -13 20 7 c44 14
125 18 139 6 13 -11 9 -18 -22 -52 -30 -32 -44 -39 -77 -40 -22 -1 -31 -4 -20
-6 11 -3 26 -10 33 -15 8 -7 12 -7 12 1 0 6 6 11 14 11 8 0 31 17 52 38 21 20
35 29 31 20 -3 -9 -1 -19 6 -22 7 -3 5 -4 -3 -3 -9 1 -16 -2 -17 -8 0 -5 4 -9
11 -7 6 1 0 -7 -14 -18 -39 -30 -10 -24 45 11 81 51 160 120 161 141 1 11 -8
25 -20 33 -23 15 -103 27 -126 19z m110 -24 c13 -9 13 -10 0 -10 -8 0 -22 5
-30 10 -13 9 -13 10 0 10 8 0 22 -5 30 -10z m-122 -7 c-10 -3 -18 -10 -18 -16
0 -7 -4 -6 -10 3 -6 10 -10 11 -10 3 0 -7 -7 -13 -16 -13 -13 0 -14 3 -5 13 6
8 26 14 43 14 18 0 25 -2 16 -4z m133 -43 c-13 -11 -28 -20 -35 -19 -7 0 -6 2
2 6 6 2 10 9 7 14 -4 5 0 6 8 3 8 -3 18 -1 22 5 3 6 9 11 13 11 4 -1 -4 -10
-17 -20z m-100 -64 c23 14 6 -15 -20 -34 l-29 -21 2 23 c0 15 6 22 14 18 7 -2
12 -1 11 4 -3 17 3 29 8 16 2 -6 9 -10 14 -6z"/>
<path d="M1036 3905 c-43 -19 -85 -40 -94 -47 -11 -10 -74 -13 -246 -13 -163
0 -238 -4 -256 -12 -23 -11 -21 -12 15 -5 22 4 128 6 235 5 172 -2 214 -6 350
-33 149 -29 245 -42 415 -57 91 -7 98 -5 -130 -53 -82 -17 -211 -50 -285 -72
-74 -23 -184 -52 -245 -65 -60 -13 -89 -21 -63 -18 29 3 60 -1 81 -10 18 -7
57 -15 85 -17 29 -2 52 -4 52 -4 0 -1 -7 -18 -15 -37 -8 -20 -14 -56 -14 -79
2 -42 2 -41 9 12 12 94 7 91 197 127 179 34 213 37 213 22 0 -5 -4 -9 -8 -9
-9 0 -46 -119 -39 -127 3 -2 8 11 12 29 9 39 31 85 54 113 10 11 23 34 29 50
11 27 11 28 -3 11 -13 -18 -18 -18 -57 -7 -53 16 -102 41 -94 48 7 7 125 32
153 33 12 0 23 -7 26 -17 4 -17 5 -17 6 0 1 20 2 20 56 7 22 -6 80 -17 129
-25 81 -13 91 -17 120 -51 26 -30 36 -35 65 -32 32 3 33 4 16 18 -11 9 -16 10
-11 3 8 -14 -3 -17 -29 -7 -13 6 -14 9 -3 15 9 7 7 8 -9 7 -12 -2 -22 1 -22 6
1 5 -5 13 -13 17 -8 5 -2 8 19 6 17 -1 29 -5 27 -8 -5 -9 26 -20 37 -13 5 3 9
0 9 -7 0 -7 8 -5 20 6 11 10 20 26 20 36 0 12 5 16 15 13 21 -8 19 -17 -11
-49 -24 -26 -27 -44 -4 -30 19 12 80 144 80 174 0 41 -20 58 -87 72 -81 16
-161 6 -278 -37 -88 -32 -108 -35 -166 -31 -66 5 -129 28 -129 47 0 5 11 17
25 26 32 21 32 38 0 31 -25 -4 -25 -4 -10 22 14 22 12 21 -12 -5 -25 -28 -62
-54 -77 -54 -3 0 -2 10 3 23 15 38 -22 87 -63 87 -12 0 -56 -16 -100 -35z
m138 3 c23 -32 20 -51 -13 -82 -23 -22 -34 -26 -56 -20 l-29 7 30 23 c35 29
21 31 -23 4 -25 -15 -43 -18 -83 -13 -27 3 -50 10 -50 15 0 13 160 85 197 87
6 1 19 -9 27 -21z m116 -62 c0 -10 -104 -57 -118 -53 -11 2 3 13 38 30 50 25
80 33 80 23z m552 -26 c20 -6 47 -19 60 -30 l23 -20 -23 -18 c-12 -9 -46 -35
-74 -57 -49 -38 -55 -39 -122 -39 -39 1 -109 9 -155 19 l-85 19 42 17 c45 20
55 39 20 39 -37 0 -8 16 87 49 94 32 163 38 227 21z m-567 -30 c18 -20 18 -20
-16 -14 -42 8 -47 13 -29 24 21 13 25 13 45 -10z m629 -84 c-3 -9 -10 -16 -16
-16 -5 0 -6 -4 -3 -10 10 -16 -11 -11 -26 6 -11 13 -11 15 2 12 7 -1 15 1 16
6 1 10 26 27 30 22 2 -2 1 -11 -3 -20z m-69 -64 c-2 -9 -4 -19 -4 -21 -1 -3
-6 0 -13 7 -15 15 -32 16 -23 2 3 -5 1 -10 -4 -10 -18 0 -12 17 12 33 26 17
37 14 32 -11z m-599 -6 c11 -8 43 -22 72 -31 29 -10 51 -20 48 -23 -3 -2 -38
-8 -78 -13 -40 -4 -116 -17 -168 -28 -122 -27 -290 -27 -290 -1 0 8 79 26 158
35 28 4 50 11 47 15 -7 11 51 25 100 23 33 -2 36 -1 15 6 -25 8 -24 8 10 19
49 14 63 14 86 -2z"/>
<path d="M1815 3651 c-3 -5 -2 -12 3 -15 5 -3 9 1 9 9 0 17 -3 19 -12 6z"/>
<path d="M1324 3924 c-18 -14 -18 -15 4 -4 12 6 22 13 22 15 0 8 -5 6 -26 -11z"/>
<path d="M3991 3909 c-56 -28 -69 -31 -136 -27 -40 2 -72 1 -69 -1 3 -3 -39
-13 -93 -22 -54 -9 -114 -20 -133 -23 -20 -4 -43 -17 -53 -30 -9 -13 -33 -41
-52 -63 l-34 -38 22 -17 c18 -15 43 -17 152 -17 72 1 162 5 200 8 40 4 -14 6
-130 4 -126 -2 -193 1 -180 6 11 5 31 10 43 10 35 1 21 23 -23 35 -34 10 -36
12 -21 25 14 12 19 11 34 -3 24 -21 45 -20 67 4 12 13 15 27 11 44 -5 22 -2
26 26 30 18 3 74 13 123 21 116 19 258 19 374 -1 51 -9 95 -13 98 -10 4 3 -5
6 -18 7 l-24 0 23 16 c12 8 22 22 22 29 0 12 -6 12 -36 -1 -33 -14 -36 -13
-30 1 20 52 -71 59 -163 13z m149 1 c0 -19 -27 -40 -51 -40 -8 0 -7 5 2 17 13
15 12 15 -8 5 -25 -14 -103 -16 -103 -3 0 15 72 40 118 40 35 1 42 -2 42 -19z
m54 -35 c-10 -8 -28 -14 -39 -14 -18 0 -17 1 5 14 34 20 60 20 34 0z m-604
-80 c0 -15 -26 -45 -39 -45 -16 0 -41 38 -35 53 11 31 74 24 74 -8z m-81 -79
c-11 -9 -69 -15 -64 -6 3 6 20 10 37 10 17 0 29 -2 27 -4z"/>
<path d="M3537 3803 c-12 -11 -8 -23 8 -23 8 0 15 7 15 15 0 16 -12 20 -23 8z"/>
<path d="M6575 3930 c-13 -6 -15 -9 -5 -9 8 0 22 4 30 9 18 12 2 12 -25 0z"/>
<path d="M6528 3913 c7 -3 16 -2 19 1 4 3 -2 6 -13 5 -11 0 -14 -3 -6 -6z"/>
<path d="M6488 3903 c7 -3 16 -2 19 1 4 3 -2 6 -13 5 -11 0 -14 -3 -6 -6z"/>
<path d="M6415 3885 c-39 -17 -21 -18 25 0 19 7 28 14 20 14 -8 0 -28 -6 -45
-14z"/>
<path d="M6349 3851 c-35 -28 -13 -44 63 -47 l63 -3 -63 8 c-34 4 -66 11 -70
15 -3 4 4 16 18 26 14 11 22 20 19 20 -4 0 -17 -9 -30 -19z"/>
<path d="M4285 3840 l-40 -6 40 -5 c36 -4 29 -6 -60 -25 -55 -12 -149 -40
-209 -63 -60 -22 -119 -41 -130 -41 -30 -1 39 -30 70 -30 21 0 24 -5 24 -35 0
-44 -43 -159 -76 -203 -14 -18 -38 -38 -52 -43 -15 -5 -49 -21 -75 -35 -27
-14 -51 -24 -53 -21 -3 3 1 19 10 35 28 54 37 117 23 158 -6 21 -19 39 -27 41
-11 4 -12 2 -2 -4 18 -14 32 -70 25 -106 -7 -40 -47 -122 -79 -164 -42 -56
-24 -93 46 -93 36 0 49 -23 27 -48 -44 -50 -56 -115 -32 -173 5 -13 -3 -18
-36 -23 -48 -8 -133 -48 -165 -77 -20 -19 -21 -19 -77 1 -89 31 -321 87 -442
106 -73 11 -188 18 -344 21 -129 1 -261 7 -295 13 -71 11 -278 12 -351 1 -28
-5 16 -6 102 -3 99 3 184 0 245 -8 52 -8 168 -13 263 -12 262 1 480 -30 740
-105 66 -19 121 -36 122 -37 2 -1 -6 -19 -16 -40 -15 -28 -17 -44 -10 -68 24
-85 148 -161 272 -168 4 0 7 -31 7 -68 0 -56 -5 -80 -30 -129 -32 -64 -88
-113 -128 -113 -28 0 -28 6 8 59 32 46 36 61 20 61 -5 0 -10 -6 -10 -14 0 -16
-67 -92 -75 -85 -2 3 2 23 10 44 27 75 14 166 -31 218 -11 13 -24 39 -28 58
-8 42 -68 132 -104 155 -22 15 -21 11 11 -28 94 -114 103 -253 21 -317 -41
-32 -46 -27 -38 39 6 56 4 66 -27 126 -36 72 -62 96 -156 143 -34 17 -64 35
-68 41 -3 5 -11 10 -17 10 -21 0 16 -31 79 -66 34 -20 63 -37 63 -38 0 -6
-169 6 -213 15 -26 5 -71 24 -100 42 -80 51 -85 52 -39 8 47 -47 49 -51 25
-51 -39 0 -127 53 -179 105 -30 31 -54 53 -54 50 0 -3 19 -40 41 -81 38 -70
41 -79 37 -136 -4 -55 -8 -64 -40 -94 -37 -33 -91 -54 -141 -54 l-27 0 25 38
c36 55 43 127 17 178 -11 21 -35 48 -54 58 l-33 20 39 -44 c28 -31 35 -45 25
-48 -8 -2 -38 -15 -66 -28 -85 -39 -106 -40 -186 -8 -87 35 -183 120 -222 197
l-27 52 4 -58 c4 -45 17 -82 61 -170 32 -61 57 -117 57 -124 0 -14 -53 -7 -95
13 -16 8 -52 33 -79 56 -57 49 -85 106 -111 223 -15 66 -24 86 -51 112 l-34
32 58 11 c75 16 82 18 52 19 -14 1 -51 -6 -82 -14 -31 -8 -86 -17 -122 -21
-51 -5 -66 -10 -66 -23 -1 -23 -41 -73 -163 -202 -113 -119 -166 -194 -188
-266 -15 -54 -32 -54 -53 -3 -33 82 -9 172 74 286 28 37 50 73 50 82 0 19 -95
-109 -127 -172 -36 -71 -41 -150 -14 -204 12 -23 30 -46 41 -52 17 -9 22 -7
30 17 57 155 74 176 77 94 1 -32 7 -71 13 -86 9 -24 7 -32 -10 -51 -12 -12
-24 -39 -27 -61 -5 -43 18 -155 46 -219 16 -36 17 -43 5 -48 -43 -16 -125 49
-165 130 -30 61 -32 69 -27 147 5 69 4 76 -5 47 -6 -19 -26 -47 -44 -63 -43
-38 -59 -92 -45 -149 6 -23 10 -44 8 -45 -2 -2 -16 3 -32 12 -16 8 -34 15 -41
15 -6 0 -23 14 -38 32 -27 32 -29 49 -10 118 6 23 5 23 -10 -4 -20 -33 -22
-84 -6 -115 29 -52 -75 -22 -134 39 -25 26 -29 38 -29 85 1 71 30 119 135 223
85 85 96 106 25 49 -23 -19 -86 -64 -141 -100 -56 -37 -114 -80 -130 -97 -37
-38 -45 -38 -45 3 1 87 74 166 242 261 87 48 198 134 198 152 0 2 -28 -17 -62
-43 -70 -53 -85 -63 -143 -94 -151 -81 -234 -168 -248 -258 -6 -34 6 -71 22
-71 4 0 34 23 66 51 55 48 127 99 141 99 3 0 -6 -14 -20 -31 -54 -64 -74 -169
-41 -216 l16 -22 -103 -4 -103 -3 107 -2 c59 -1 110 -6 113 -12 4 -6 -64 -9
-197 -7 -390 4 -658 -2 -658 -15 0 -10 51 -13 220 -13 121 0 220 3 220 8 0 4
37 7 83 7 61 0 89 -4 106 -17 20 -13 56 -17 203 -20 111 -2 178 1 178 7 0 5
25 -1 56 -15 62 -27 74 -26 74 11 0 21 4 24 38 24 31 0 45 -7 77 -41 22 -22
58 -52 81 -65 32 -19 44 -34 54 -67 20 -67 39 -97 73 -113 32 -15 32 -17 34
-92 5 -179 102 -325 283 -425 188 -103 465 -179 650 -179 242 0 631 105 807
218 196 125 278 256 299 482 l7 72 47 0 c75 0 159 48 215 122 25 33 45 64 45
69 0 5 67 9 148 9 l148 0 34 -67 c19 -37 51 -83 71 -103 l37 -35 -11 -98 c-20
-187 17 -303 132 -417 75 -74 147 -119 264 -166 88 -35 273 -76 428 -96 90
-11 95 -13 91 -33 -2 -14 2 -24 12 -28 9 -4 16 -2 16 2 0 5 -5 11 -12 13 -6 2
-9 12 -5 21 5 13 19 17 59 17 96 1 379 67 551 130 113 41 257 116 286 149 12
14 13 13 8 -6 -3 -13 -1 -23 4 -23 5 0 9 10 9 23 0 12 7 30 14 40 12 15 14 15
19 3 4 -9 2 -18 -2 -21 -19 -11 -19 -58 0 -78 22 -24 25 -22 34 16 6 23 4 29
-14 34 -20 5 -30 23 -13 23 4 0 13 10 21 21 11 19 11 21 -3 16 -17 -7 -23 8
-7 17 5 3 26 35 47 70 21 36 41 63 45 60 4 -2 10 0 14 6 3 5 2 10 -4 10 -11 0
2 54 18 73 5 7 11 21 14 32 l5 20 0 -20 c1 -11 -3 -39 -7 -62 -7 -38 -7 -40
10 -30 13 8 15 15 7 24 -12 15 -4 43 13 43 7 0 10 -3 6 -6 -3 -3 8 -20 25 -38
20 -21 32 -27 35 -18 4 10 8 10 19 1 11 -9 18 -9 26 -1 8 8 8 12 2 12 -6 0
-19 15 -29 34 -15 27 -16 38 -7 48 9 11 9 17 0 26 -9 9 -8 12 5 12 10 0 17 -8
17 -20 0 -11 -4 -20 -10 -20 -5 0 -10 -4 -10 -10 0 -5 6 -10 13 -10 8 0 21
-19 30 -42 9 -23 20 -38 24 -35 4 4 2 12 -4 18 -6 6 -7 26 -3 49 4 22 4 38 1
35 -12 -7 -25 9 -48 55 -20 39 -23 42 -24 20 -1 -18 -3 -20 -6 -7 -3 11 -11
16 -18 13 -9 -3 -12 0 -8 10 4 10 -3 14 -23 14 -23 0 -26 -2 -14 -10 11 -7 11
-10 2 -10 -7 0 -10 -5 -6 -12 4 -6 3 -8 -4 -5 -11 8 -11 25 1 45 5 7 4 12 -2
12 -6 0 -11 4 -11 9 0 5 18 11 41 15 23 4 55 14 71 22 17 9 40 13 52 10 36
-10 246 15 350 40 109 28 192 66 275 127 l54 40 106 -11 c58 -7 164 -12 235
-12 l129 0 31 -36 31 -36 120 -5 c66 -3 136 -5 155 -6 34 -2 35 -1 38 39 l3
41 -118 12 c-65 6 -226 11 -358 12 -278 1 -350 7 -350 29 0 11 15 17 50 21 44
5 46 6 13 7 l-38 2 59 83 c86 121 101 153 101 217 -1 30 -8 69 -16 85 -8 17
-12 21 -8 10 3 -11 8 -36 12 -55 5 -33 4 -34 -14 -20 -18 14 -18 14 -1 -6 9
-11 17 -28 17 -38 0 -47 -116 -212 -225 -319 -78 -78 -175 -127 -315 -161
-104 -25 -244 -46 -308 -46 l-34 0 44 44 c57 57 103 145 118 226 7 36 20 81
30 100 10 19 23 54 30 78 l11 43 45 -36 c46 -38 80 -41 70 -8 -2 10 -8 33 -11
52 l-7 34 43 -31 c48 -35 103 -50 113 -33 11 17 -14 92 -45 137 -16 24 -29 45
-29 48 0 3 -18 22 -40 42 -22 20 -40 45 -40 56 0 20 -39 63 -75 84 -16 9 2 11
80 7 80 -4 104 -2 120 10 20 15 20 16 -3 40 -13 14 -37 31 -52 37 -43 18 -44
36 -3 67 20 16 56 46 80 68 37 34 43 46 43 81 0 85 -100 157 -261 189 -255 50
-309 66 -309 90 0 12 16 15 92 15 50 0 89 2 87 5 -12 11 -286 8 -321 -4 -43
-14 -51 -43 -18 -61 24 -13 26 -36 4 -44 -26 -10 -152 -7 -200 5 -36 9 -44 15
-44 35 0 17 12 30 45 50 52 30 55 51 12 72 -52 25 -127 26 -192 3 -51 -18 -73
-34 -150 -114 -98 -102 -147 -131 -241 -148 -74 -12 -147 5 -152 37 -2 11 15
47 38 80 22 32 40 66 40 74 0 15 -32 -33 -72 -108 -28 -53 -19 -71 43 -91 35
-11 56 -12 108 -3 91 15 157 55 235 141 88 97 103 108 172 126 112 30 254 -18
165 -55 -16 -6 -39 -23 -52 -36 -47 -50 13 -83 151 -83 62 -1 92 3 108 15 29
20 28 32 -3 46 -55 25 -6 58 86 58 41 0 49 -3 49 -18 0 -33 41 -46 315 -98
104 -19 172 -52 221 -106 54 -60 44 -109 -33 -168 -100 -77 -113 -102 -65
-122 15 -7 40 -21 55 -31 22 -15 25 -22 16 -33 -9 -11 -35 -13 -120 -9 -60 3
-109 1 -109 -3 0 -5 20 -22 45 -40 25 -17 45 -35 45 -40 0 -10 -130 54 -185
90 -26 18 -95 42 -193 67 -84 22 -160 45 -170 50 -33 17 -218 51 -382 70 -91
11 -227 29 -303 41 -130 19 -156 20 -485 11 -191 -6 -409 -17 -484 -26 -163
-18 -439 -85 -519 -125 -56 -29 -57 -29 -74 -10 -19 21 -60 27 -70 10 -3 -5
-21 -1 -44 11 -21 11 -58 23 -82 27 -78 13 -97 96 -40 173 12 16 21 39 21 53
0 25 -8 29 -89 39 -24 3 -23 23 4 55 34 41 191 116 295 142 47 11 97 26 113
32 29 11 37 38 12 38 -27 0 -16 18 18 29 17 6 57 15 87 21 l55 9 -50 -4 c-27
-2 -64 -7 -80 -10 -41 -9 -75 19 -85 71 -7 37 -8 37 -9 7 -1 -20 8 -42 23 -60
24 -29 24 -29 5 -41 -25 -16 -16 -32 19 -32 45 0 11 -16 -80 -39 -48 -11 -89
-21 -92 -21 -2 0 12 31 31 69 21 43 37 91 40 126 6 60 6 59 45 69 23 5 26 3
21 -17 -4 -21 -4 -21 9 3 16 29 43 38 125 39 34 1 68 4 77 7 21 8 21 24 0 24
-8 0 -12 -4 -9 -10 4 -6 -19 -10 -63 -10 -37 0 -105 -9 -151 -21 -107 -27
-138 -17 -56 18 33 14 85 33 115 43 52 16 56 16 85 -2 17 -10 37 -18 45 -18 8
1 0 7 -19 16 -45 19 -31 32 43 42 45 5 62 12 74 30 8 12 11 21 6 21 -5 -1 -27
-5 -49 -9z m1184 -900 c18 -28 44 -58 57 -67 l24 -15 -44 -29 c-66 -41 -85
-92 -50 -130 16 -18 18 -17 54 11 45 36 116 69 147 70 27 0 75 -40 114 -96 16
-24 35 -44 41 -44 20 0 37 34 38 74 l0 39 42 -42 c51 -50 149 -101 195 -101
38 0 41 12 14 56 l-19 32 38 -25 c48 -32 93 -132 123 -276 11 -53 25 -96 31
-94 5 2 24 48 42 103 35 107 66 169 90 178 24 9 157 -40 177 -66 27 -36 50
-163 42 -235 -8 -77 -59 -186 -115 -247 -49 -54 -130 -96 -181 -96 l-37 0 -7
-72 c-21 -229 -135 -390 -351 -496 -162 -80 -491 -169 -661 -179 -104 -6 -144
-2 -373 39 -318 57 -524 194 -591 395 -20 61 -21 76 -13 187 4 67 8 159 8 206
0 82 -2 89 -56 210 -64 142 -98 249 -98 308 0 45 -10 40 115 56 17 2 -6 3 -51
3 -84 1 -118 11 -145 46 -15 19 -21 20 -56 9 -32 -9 -83 -8 -83 3 0 24 14 33
40 23 36 -12 67 3 76 38 14 55 -37 100 -84 75 -15 -8 -22 -8 -25 2 -3 6 -6
-12 -6 -41 -2 -95 -29 -123 -135 -142 -92 -16 -136 -12 -196 16 -93 43 -147
109 -135 164 8 38 73 96 144 128 75 35 174 36 244 4 29 -13 51 -30 54 -42 6
-24 19 -26 27 -5 7 19 29 19 65 0 24 -12 43 -12 118 -3 60 7 99 8 119 1 25 -9
19 -11 -53 -18 -46 -4 -83 -12 -83 -17 0 -7 13 -8 33 -4 129 28 195 14 262
-54 45 -46 31 -54 -35 -20 -45 23 -149 37 -173 24 -10 -6 7 -9 51 -10 42 0 78
-6 97 -17 30 -16 28 -16 -69 -17 -55 0 -96 -3 -92 -7 4 -5 69 -8 144 -8 135 0
137 0 175 -29 48 -37 47 -48 -3 -29 -37 15 -48 15 -133 0 -88 -16 -126 -14
-179 8 -10 4 -18 4 -18 1 0 -16 75 -36 137 -37 37 0 82 -6 98 -12 72 -29 90
-56 24 -37 -55 16 -127 23 -109 11 8 -6 27 -11 42 -11 15 0 48 -5 73 -12 24
-7 47 -9 51 -5 10 10 -23 43 -58 58 l-30 12 31 13 c29 12 53 10 104 -11 22 -9
23 12 0 37 -17 19 -16 20 7 39 14 10 35 19 47 19 37 0 91 -32 103 -61 15 -36
46 -63 63 -56 8 3 17 21 21 41 8 43 26 57 26 21 0 -30 26 -85 40 -85 6 0 13 0
18 0 4 0 14 21 23 48 l16 47 20 -45 c25 -55 57 -86 102 -95 l34 -7 -9 48 c-15
89 -10 155 18 214 l26 55 1 -55 c2 -63 26 -124 65 -160 37 -34 52 -21 82 70
30 88 61 131 47 65 -11 -58 -8 -104 8 -120 13 -13 19 -7 51 48 23 38 45 96 58
150 18 79 35 127 44 127 1 0 17 -23 35 -50z m-3633 -5 c24 -26 35 -48 39 -83
21 -156 88 -252 222 -321 32 -16 92 -14 99 4 6 15 -2 34 -73 170 -18 33 -35
71 -38 85 -6 21 -2 19 27 -15 55 -66 90 -94 162 -130 87 -44 143 -46 220 -8
29 14 61 23 70 20 31 -12 11 -112 -31 -159 -14 -16 -14 -18 9 -27 33 -13 114
4 154 31 36 25 74 84 74 116 0 11 13 31 28 44 24 20 38 23 98 22 98 -2 127
-10 164 -49 40 -42 53 -44 39 -9 -5 15 -7 30 -3 33 13 14 101 3 140 -17 82
-42 113 -105 100 -203 -7 -48 -6 -49 20 -49 33 0 90 56 99 96 4 16 10 38 14
49 7 18 9 17 26 -9 29 -44 32 -139 6 -203 -20 -52 -17 -68 13 -57 9 4 16 1 16
-6 0 -19 74 -6 110 20 34 25 35 24 15 -50 -8 -30 -12 -56 -10 -58 3 -3 7 1 9
9 3 8 19 57 36 109 17 52 40 109 51 127 12 18 17 33 12 33 -4 0 -6 27 -5 60 3
43 8 60 18 60 10 0 14 -13 14 -44 0 -49 33 -99 72 -112 20 -6 20 -11 14 -88
-12 -156 -69 -267 -166 -320 -45 -25 -134 -40 -158 -27 -21 11 -22 10 -22 -36
0 -197 -71 -352 -210 -463 -185 -150 -589 -270 -901 -271 -90 0 -128 6 -260
40 -85 21 -185 51 -222 65 -98 37 -223 116 -283 178 -131 135 -154 233 -113
500 16 110 7 154 -61 298 -60 127 -84 215 -78 286 4 51 8 56 97 149 103 109
167 186 176 214 6 20 28 26 104 29 27 2 40 -5 67 -33z m2128 -24 c3 -5 -5 -11
-19 -13 -26 -5 -35 6 -12 15 19 8 25 8 31 -2z m708 -76 c-2 -14 -11 -25 -18
-25 -18 0 -18 9 3 32 21 23 21 23 15 -7z m-650 -62 c26 -23 23 -59 -6 -78 -32
-21 -62 -6 -68 34 -8 52 36 78 74 44z m-1220 -64 c20 -11 20 -11 -2 -26 -19
-13 -24 -13 -31 -2 -22 34 -5 48 33 28z m3500 -93 c42 -1 80 -4 83 -8 4 -4 -4
-21 -18 -37 -26 -32 -43 -73 -74 -181 l-19 -65 -17 87 c-9 47 -28 114 -42 147
-30 72 -30 75 -7 65 9 -4 51 -8 94 -8z m-2197 -33 c30 -45 34 -88 17 -158 -20
-84 -37 -101 -107 -110 -65 -8 -78 -25 -46 -59 25 -26 27 -51 5 -60 -26 -10
-116 -7 -109 4 5 8 34 205 35 236 0 16 60 104 71 104 5 0 9 -14 9 -30 0 -32
42 -86 59 -76 5 3 9 21 9 40 0 31 28 136 37 136 1 0 11 -12 20 -27z m-322 0
c-7 -2 -19 -2 -25 0 -7 3 -2 5 12 5 14 0 19 -2 13 -5z m2895 -124 c2 -13 -5
-42 -15 -64 -16 -37 -17 -38 -20 -15 -5 33 -21 103 -30 126 -6 17 -4 17 28 -2
22 -13 35 -29 37 -45z m-2504 -99 c9 -28 38 -98 65 -158 51 -113 71 -195 50
-208 -27 -17 -117 136 -138 234 -17 80 -14 182 5 182 1 0 9 -23 18 -50z
m-2730 -53 c68 -142 77 -173 74 -245 l-3 -66 -36 32 c-56 49 -109 187 -109
284 0 104 23 103 74 -5z m2673 11 c-3 -8 -6 -5 -6 6 -1 11 2 17 5 13 3 -3 4
-12 1 -19z m-2917 -26 c0 -20 4 -52 9 -70 l10 -32 -45 0 -44 0 0 39 c0 28 8
49 26 70 34 41 44 39 44 -7z m2925 -12 c2 -8 7 -34 10 -57 l5 -43 -40 -1 c-56
-2 -67 -2 -92 1 -20 2 -19 3 7 10 17 4 22 8 13 9 -10 0 -18 9 -18 18 0 9 -12
29 -27 45 -29 31 -29 30 52 45 53 9 81 0 90 -27z m-2668 -258 c15 -16 34 -31
42 -33 11 -4 12 -16 7 -52 -8 -53 -22 -59 -55 -24 -23 25 -63 122 -53 131 12
12 32 5 59 -22z m4873 -238 c0 -16 -1 -16 -15 2 -20 26 -20 51 0 30 8 -8 15
-23 15 -32z m41 -77 c-8 -8 -11 -7 -11 4 0 20 13 34 18 19 3 -7 -1 -17 -7 -23z"/>
<path d="M5625 2570 c-80 -25 -145 -116 -165 -233 -15 -85 -7 -111 10 -32 35
169 131 252 261 224 91 -20 154 -99 183 -229 12 -56 14 -60 16 -30 7 91 -20
177 -73 231 -61 64 -157 92 -232 69z"/>
<path d="M4505 2524 c-49 -17 -98 -70 -113 -122 -17 -57 -14 -151 6 -195 l17
-39 0 104 c0 91 3 107 24 142 46 74 123 96 201 56 57 -29 104 -103 127 -200
l13 -55 -6 59 c-12 121 -60 206 -139 243 -57 26 -74 27 -130 7z"/>
<path d="M6449 2419 c-29 -58 -59 -156 -58 -193 0 -21 6 -7 20 44 10 41 32
101 47 133 16 31 25 57 20 57 -4 0 -17 -19 -29 -41z"/>
<path d="M5604 2402 c-80 -64 -69 -213 18 -255 32 -16 43 -17 73 -7 56 18 85
62 85 126 0 62 -17 102 -56 133 -33 26 -91 27 -120 3z m156 -86 c18 -23 8 -61
-17 -64 -30 -4 -53 39 -33 63 16 19 34 19 50 1z"/>
<path d="M4543 2348 c-47 -52 -54 -99 -27 -168 27 -68 118 -95 161 -47 45 49
55 100 29 161 -29 70 -121 100 -163 54z m152 -82 c20 -30 10 -56 -21 -56 -31
0 -53 42 -34 65 18 22 37 19 55 -9z"/>
<path d="M4921 2062 c-14 -27 -14 -42 1 -42 6 0 8 3 5 6 -3 4 -2 15 4 26 6 11
8 22 6 25 -3 2 -10 -4 -16 -15z"/>
<path d="M5627 2073 c18 -2 50 -2 70 0 21 2 7 4 -32 4 -38 0 -55 -2 -38 -4z"/>
<path d="M4587 2047 c14 -6 35 -6 60 0 37 10 36 10 -22 10 -47 0 -55 -2 -38
-10z"/>
<path d="M5073 2013 c-7 -2 -13 -9 -13 -15 0 -6 6 -6 15 2 8 6 20 8 26 4 8 -4
9 -3 5 4 -8 13 -13 14 -33 5z"/>
<path d="M4945 1497 c-46 -18 -75 -37 -75 -47 0 -6 18 1 39 15 50 33 123 41
231 26 86 -13 123 -25 153 -49 11 -10 17 -11 17 -4 0 49 -277 93 -365 59z"/>
<path d="M1695 2754 c-49 -25 -84 -65 -117 -131 -39 -80 -31 -118 11 -52 39
62 103 117 146 125 42 7 113 -16 140 -46 10 -11 22 -20 27 -20 19 0 6 42 -24
76 -54 61 -123 79 -183 48z m144 -30 c18 -14 36 -35 42 -46 10 -18 6 -17 -34
6 -80 47 -155 31 -225 -49 -23 -26 -42 -45 -42 -41 0 20 56 100 88 126 50 41
125 43 171 4z"/>
<path d="M2837 2546 c-21 -8 -56 -26 -78 -41 -70 -49 -128 -204 -101 -274 8
-21 10 -17 16 33 12 109 71 198 153 233 39 16 111 17 150 2 74 -28 133 -126
133 -222 0 -36 4 -56 10 -52 18 11 11 136 -9 181 -25 55 -88 124 -128 141 -41
16 -97 16 -146 -1z"/>
<path d="M1732 2509 c-85 -42 -133 -142 -117 -242 13 -76 20 -77 20 -3 1 58 6
83 26 122 25 49 72 89 116 100 100 25 210 -93 216 -233 2 -44 16 -60 18 -20 4
87 -10 146 -51 210 -51 81 -143 108 -228 66z"/>
<path d="M2803 2445 c-92 -40 -107 -206 -23 -265 34 -24 97 -26 128 -4 121 84
27 326 -105 269z m145 -147 c3 -34 1 -38 -20 -38 -13 0 -29 5 -36 12 -27 27
-4 71 33 66 15 -2 21 -12 23 -40z"/>
<path d="M1779 2427 c-45 -30 -66 -102 -50 -165 31 -112 153 -126 195 -21 31
77 11 166 -45 194 -39 21 -60 19 -100 -8z m127 -85 c30 -20 18 -72 -17 -72
-27 0 -47 44 -29 65 14 16 29 19 46 7z"/>
<path d="M1813 2093 c9 -2 25 -2 35 0 9 3 1 5 -18 5 -19 0 -27 -2 -17 -5z"/>
<path d="M2820 2078 c0 -4 14 -8 30 -8 17 0 30 2 30 4 0 2 -13 6 -30 8 -16 3
-30 1 -30 -4z"/>
<path d="M2120 2055 c-6 -8 -10 -21 -8 -31 2 -11 7 -6 15 15 13 34 11 38 -7
16z"/>
<path d="M2150 2001 c0 -5 5 -13 10 -16 6 -3 10 -2 10 4 0 5 -4 13 -10 16 -5
3 -10 2 -10 -4z"/>
<path d="M2259 1993 c-12 -16 -12 -17 1 -7 8 6 22 14 30 17 13 5 12 6 -1 6 -9
1 -23 -7 -30 -16z"/>
<path d="M2871 1638 c-16 -31 -101 -92 -178 -129 -97 -46 -186 -61 -358 -61
-253 1 -332 30 -430 157 -14 18 -15 17 -1 -12 19 -39 88 -96 147 -122 66 -29
206 -45 339 -37 148 8 235 27 326 72 99 49 218 154 174 154 -4 0 -12 -10 -19
-22z"/>
<path d="M3972 2757 c-9 -10 -8 -18 2 -32 18 -25 48 -13 44 17 -4 27 -30 35
-46 15z"/>
<path d="M2974 3832 c-67 -21 -114 -79 -114 -139 0 -35 -23 -24 -36 17 l-11
33 -7 -42 c-3 -24 -16 -61 -27 -83 -11 -22 -18 -42 -15 -45 6 -7 46 72 46 92
0 24 15 18 65 -27 38 -35 48 -51 52 -86 6 -41 4 -45 -45 -92 -28 -27 -70 -59
-94 -71 -69 -35 -151 -90 -144 -96 3 -3 14 1 23 9 10 9 56 39 103 66 120 71
178 131 172 176 -2 18 5 23 48 33 66 16 95 38 120 95 33 78 24 125 -30 153
-30 15 -69 18 -106 7z"/>
<path d="M5418 3833 c23 -2 61 -2 85 0 23 2 4 4 -43 4 -47 0 -66 -2 -42 -4z"/>
<path d="M3733 3805 c-24 -13 -43 -20 -43 -14 0 5 -3 9 -7 9 -5 0 -8 -20 -8
-45 0 -35 2 -41 10 -27 8 13 24 17 69 17 63 1 86 17 86 62 0 19 -5 23 -32 23
-18 0 -52 -11 -75 -25z m97 5 c0 -5 -8 -14 -17 -19 -11 -6 -13 -11 -5 -11 25
0 2 -18 -33 -24 -41 -8 -78 1 -69 16 8 13 84 48 107 48 9 0 17 -4 17 -10z"/>
<path d="M358 3803 c7 -3 16 -2 19 1 4 3 -2 6 -13 5 -11 0 -14 -3 -6 -6z"/>
<path d="M5386 3794 c-31 -11 -42 -12 -54 -1 -13 10 -15 9 -9 -6 4 -10 7 -31
8 -45 0 -15 3 -22 6 -15 3 9 18 11 48 7 35 -5 46 -3 64 15 11 11 21 30 21 41
0 24 -26 25 -84 4z m69 -4 c7 -11 -30 -50 -47 -50 -24 0 -58 12 -58 20 0 5 19
15 43 23 52 19 54 19 62 7z"/>
<path d="M203 3756 c-23 -8 -53 -11 -66 -9 -27 5 -67 -12 -67 -28 0 -6 7 -3
16 5 38 39 110 -6 84 -53 -24 -46 -84 -44 -96 4 -8 32 -24 21 -54 -37 -27 -53
-20 -60 9 -8 21 38 41 52 41 30 0 -5 11 -17 24 -25 49 -32 107 19 87 76 -8 25
-7 29 7 29 18 1 84 28 67 29 -5 0 -29 -6 -52 -13z"/>
<path d="M505 3754 c-16 -8 -21 -12 -10 -8 46 13 73 15 79 6 9 -15 -29 -83
-55 -99 -14 -8 -16 -12 -6 -9 10 3 23 6 27 6 13 0 52 91 46 107 -7 17 -43 16
-81 -3z"/>
<path d="M4731 3759 c-1 -16 -43 -57 -87 -87 -11 -7 -6 -6 11 2 40 19 89 71
82 88 -4 9 -6 8 -6 -3z"/>
<path d="M6470 3750 c-9 -6 -10 -10 -3 -10 6 0 15 5 18 10 8 12 4 12 -15 0z"/>
<path d="M2750 3735 c-7 -9 -11 -17 -9 -20 3 -2 10 5 17 15 14 24 10 26 -8 5z"/>
<path d="M414 3714 c-18 -14 -18 -14 6 -3 31 14 36 19 24 19 -6 0 -19 -7 -30
-16z"/>
<path d="M6398 3723 c7 -3 16 -2 19 1 4 3 -2 6 -13 5 -11 0 -14 -3 -6 -6z"/>
<path d="M102 3707 c-14 -17 2 -42 22 -34 20 8 20 21 2 36 -10 8 -16 8 -24 -2z"/>
<path d="M6290 3710 l-55 -7 73 -1 c42 -1 72 2 72 8 0 11 -4 11 -90 0z"/>
<path d="M2713 3654 c-9 -15 -31 -35 -48 -45 -16 -11 -24 -19 -16 -19 7 0 33
20 58 45 24 25 39 45 34 45 -6 0 -18 -12 -28 -26z"/>
<path d="M4590 3650 c-8 -5 -10 -10 -5 -10 6 0 17 5 25 10 8 5 11 10 5 10 -5
0 -17 -5 -25 -10z"/>
<path d="M6858 3653 c7 -3 16 -2 19 1 4 3 -2 6 -13 5 -11 0 -14 -3 -6 -6z"/>
<path d="M5637 3643 c18 -2 50 -2 70 0 21 2 7 4 -32 4 -38 0 -55 -2 -38 -4z"/>
<path d="M340 3616 c0 -13 3 -17 8 -10 4 7 18 14 32 16 23 3 22 4 -7 9 -28 5
-33 3 -33 -15z"/>
<path d="M428 3633 c12 -2 30 -2 40 0 9 3 -1 5 -23 4 -22 0 -30 -2 -17 -4z"/>
<path d="M3179 3613 c-8 -14 -32 -39 -53 -55 -21 -15 -34 -28 -28 -28 25 0
112 93 99 106 -2 2 -10 -8 -18 -23z"/>
<path d="M2108 3623 c7 -3 16 -2 19 1 4 3 -2 6 -13 5 -11 0 -14 -3 -6 -6z"/>
<path d="M1552 3590 c0 -19 2 -27 5 -17 2 9 2 25 0 35 -3 9 -5 1 -5 -18z"/>
<path d="M3414 3612 c-6 -4 -15 -22 -18 -39 -9 -37 -47 -73 -120 -110 -41 -21
-71 -28 -151 -33 l-100 -7 85 -1 c100 -2 166 18 234 69 32 23 50 46 58 73 15
47 35 57 60 27 10 -13 18 -19 18 -13 0 14 -29 42 -43 42 -7 0 -17 -4 -23 -8z"/>
<path d="M2159 3593 c-13 -16 -12 -17 4 -4 9 7 17 15 17 17 0 8 -8 3 -21 -13z"/>
<path d="M2026 3585 c-11 -8 -15 -15 -9 -15 6 0 16 7 23 15 16 19 11 19 -14 0z"/>
<path d="M2583 3583 c9 -2 23 -2 30 0 6 3 -1 5 -18 5 -16 0 -22 -2 -12 -5z"/>
<path d="M12 3572 c-7 -5 15 -6 49 -4 37 3 65 0 72 -7 8 -8 4 -11 -14 -11 -27
0 -123 -30 -116 -36 7 -7 151 33 154 43 7 20 -116 33 -145 15z"/>
<path d="M2382 3561 c-29 -10 -59 -24 -65 -30 -7 -7 10 -2 38 10 29 13 83 25
130 29 l80 7 -65 1 c-40 1 -86 -6 -118 -17z"/>
<path d="M3639 3564 c-46 -14 -58 -25 -174 -151 -59 -65 -77 -69 -30 -8 34 45
56 101 54 140 0 17 -2 16 -9 -5 -4 -14 -11 -37 -14 -51 -3 -15 -22 -49 -41
-77 -41 -60 -41 -62 -16 -62 12 0 40 24 68 57 91 108 127 139 177 152 25 6 46
13 46 16 0 7 -9 5 -61 -11z"/>
<path d="M6402 3555 c-30 -7 -58 -17 -64 -23 -13 -13 -1 -32 20 -31 15 1 15 2
0 6 -10 2 -18 8 -18 13 0 9 34 20 120 38 25 6 34 10 20 10 -14 0 -49 -5 -78
-13z"/>
<path d="M2000 3549 c0 -5 12 -12 26 -15 16 -4 23 -11 20 -21 -3 -8 -1 -11 4
-8 17 11 11 23 -20 39 -16 8 -30 10 -30 5z"/>
<path d="M2084 3535 c-7 -17 3 -35 19 -35 8 0 7 3 -2 9 -8 5 -11 16 -8 25 4 9
4 16 1 16 -2 0 -7 -7 -10 -15z"/>
<path d="M4284 3531 c5 -8 -6 -17 -33 -28 -41 -16 -60 -40 -38 -48 6 -3 46 1
87 9 80 15 61 20 -27 7 -60 -8 -69 2 -19 23 39 16 51 31 35 42 -8 4 -9 3 -5
-5z"/>
<path d="M593 3523 c15 -2 37 -2 50 0 12 2 0 4 -28 4 -27 0 -38 -2 -22 -4z"/>
<path d="M3048 3523 c6 -2 18 -2 25 0 6 3 1 5 -13 5 -14 0 -19 -2 -12 -5z"/>
<path d="M463 3513 c15 -2 37 -2 50 0 12 2 0 4 -28 4 -27 0 -38 -2 -22 -4z"/>
<path d="M1580 3516 c0 -2 8 -10 18 -17 15 -13 16 -12 3 4 -13 16 -21 21 -21
13z"/>
<path d="M2973 3513 c9 -2 25 -2 35 0 9 3 1 5 -18 5 -19 0 -27 -2 -17 -5z"/>
<path d="M225 3500 c-23 -5 -3 -6 50 -3 50 3 92 7 94 9 7 7 -102 2 -144 -6z"/>
<path d="M0 3488 c0 -5 42 -7 93 -6 94 1 82 5 -31 10 -34 2 -62 0 -62 -4z"/>
<path d="M2010 3490 c-9 -6 -10 -10 -3 -10 6 0 15 5 18 10 8 12 4 12 -15 0z"/>
<path d="M2218 3453 c-24 -27 -64 -77 -88 -113 -24 -36 -49 -69 -57 -73 -7 -4
-13 -13 -13 -18 0 -20 21 3 72 79 29 42 72 98 96 125 25 26 42 47 40 47 -3 0
-25 -21 -50 -47z"/>
<path d="M5075 3479 c-33 -11 -89 -29 -124 -40 -108 -34 -155 -86 -98 -108 12
-5 37 -15 55 -21 55 -21 42 -38 -63 -77 -22 -8 -78 -19 -125 -23 l-85 -7 64
-2 c103 -2 251 48 251 86 0 8 -25 25 -55 38 -30 14 -55 29 -55 35 0 17 73 57
135 75 33 9 84 25 113 36 114 41 166 11 106 -61 -19 -22 -24 -34 -16 -42 8 -8
29 1 75 31 77 50 133 63 153 36 8 -11 14 -14 14 -8 0 6 -7 16 -15 23 -26 22
-93 5 -156 -39 -59 -42 -88 -42 -44 -1 46 44 24 91 -42 89 -15 0 -55 -9 -88
-20z"/>
<path d="M6398 3493 c12 -2 32 -2 45 0 12 2 2 4 -23 4 -25 0 -35 -2 -22 -4z"/>
<path d="M6488 3483 c6 -2 18 -2 25 0 6 3 1 5 -13 5 -14 0 -19 -2 -12 -5z"/>
<path d="M1929 3452 c-67 -43 -119 -108 -149 -187 -14 -36 10 -55 70 -55 52 0
74 -16 45 -32 -9 -6 -31 -23 -49 -39 l-31 -28 55 1 55 1 -45 7 c-25 4 -40 8
-35 9 6 1 26 14 45 30 29 25 32 31 21 45 -9 11 -30 16 -61 16 -70 0 -76 14
-40 87 32 64 77 111 143 149 23 13 37 24 31 24 -5 0 -30 -13 -55 -28z"/>
<path d="M6550 3470 c34 -11 60 -11 35 0 -11 5 -29 8 -40 8 -16 0 -15 -2 5 -8z"/>
<path d="M1718 3463 c12 -2 32 -2 45 0 12 2 2 4 -23 4 -25 0 -35 -2 -22 -4z"/>
<path d="M2067 3386 c-26 -45 -47 -93 -46 -107 1 -20 2 -19 9 8 4 18 27 64 50
103 23 39 41 72 39 75 -3 2 -26 -33 -52 -79z"/>
<path d="M4663 3426 c36 -36 34 -51 -13 -84 -21 -15 -42 -33 -45 -40 -3 -8 17
5 45 28 27 23 50 46 50 52 0 19 -21 48 -43 59 -19 9 -18 7 6 -15z"/>
<path d="M6634 3442 c3 -5 0 -13 -6 -15 -9 -4 -10 -6 -1 -6 17 -1 25 16 12 25
-7 4 -9 3 -5 -4z"/>
<path d="M2973 3410 c-35 -14 -27 -20 10 -8 17 6 34 13 36 14 8 7 -24 3 -46
-6z"/>
<path d="M2825 3338 c-55 -29 -118 -55 -140 -59 -39 -6 -39 -7 -7 -8 22 -1 71
18 145 55 62 31 114 58 116 60 15 14 -27 -4 -114 -48z"/>
<path d="M1335 3345 c17 -14 53 -32 80 -41 28 -9 64 -24 80 -32 26 -13 28 -13
18 0 -7 8 -32 20 -55 27 -24 7 -68 26 -98 42 -52 27 -53 27 -25 4z"/>
<path d="M989 3261 c23 -23 41 -49 42 -58 0 -11 2 -13 6 -5 6 15 -40 77 -68
93 -11 6 -2 -8 20 -30z"/>
<path d="M1530 3242 c0 -13 -17 -26 -52 -42 -65 -28 -114 -63 -130 -93 -8 -15
-1 -12 22 11 18 18 64 49 101 68 51 25 69 40 69 54 0 11 -2 20 -5 20 -3 0 -5
-8 -5 -18z"/>
<path d="M840 3170 c17 -22 37 -43 43 -47 6 -4 -6 14 -27 40 -21 26 -40 47
-43 47 -3 0 10 -18 27 -40z"/>
<path d="M1008 3134 c-9 -10 -34 -20 -55 -24 l-38 -8 36 -1 c26 -1 42 6 59 24
26 28 24 35 -2 9z"/>
<path d="M2093 3133 c9 -2 25 -2 35 0 9 3 1 5 -18 5 -19 0 -27 -2 -17 -5z"/>
<path d="M1963 3123 c15 -2 39 -2 55 0 15 2 2 4 -28 4 -30 0 -43 -2 -27 -4z"/>
<path d="M1723 3103 c9 -2 23 -2 30 0 6 3 -1 5 -18 5 -16 0 -22 -2 -12 -5z"/>
<path d="M1568 3093 c6 -2 18 -2 25 0 6 3 1 5 -13 5 -14 0 -19 -2 -12 -5z"/>
<path d="M1453 3083 c9 -2 23 -2 30 0 6 3 -1 5 -18 5 -16 0 -22 -2 -12 -5z"/>
<path d="M1335 3070 c-13 -6 -1 -7 35 -3 30 3 57 7 59 9 9 8 -75 2 -94 -6z"/>
<path d="M1215 3045 c-27 -7 -41 -13 -30 -14 11 0 45 6 75 14 30 7 44 13 30
13 -14 0 -47 -6 -75 -13z"/>
<path d="M713 3033 c9 -2 25 -2 35 0 9 3 1 5 -18 5 -19 0 -27 -2 -17 -5z"/>
<path d="M993 3013 c27 -4 28 -5 12 -23 -16 -18 -16 -18 4 -13 12 3 21 13 21
24 0 15 -7 19 -32 18 -32 -2 -32 -2 -5 -6z"/>
<path d="M7060 3011 c0 -6 4 -13 10 -16 6 -3 7 1 4 9 -7 18 -14 21 -14 7z"/>
<path d="M825 2970 c-13 -5 -14 -9 -5 -9 8 0 24 4 35 9 13 5 14 9 5 9 -8 0
-24 -4 -35 -9z"/>
<path d="M1469 2945 c-97 -17 -224 -52 -269 -75 -69 -36 -73 -49 -5 -16 88 42
163 62 318 86 67 10 102 18 77 18 -25 0 -79 -6 -121 -13z"/>
<path d="M7048 2848 c5 -5 16 -8 23 -6 8 3 3 7 -10 11 -17 4 -21 3 -13 -5z"/>
<path d="M7105 2830 c11 -5 27 -9 35 -9 9 0 8 4 -5 9 -11 5 -27 9 -35 9 -9 0
-8 -4 5 -9z"/>
<path d="M7201 2787 c38 -29 73 -68 117 -133 7 -10 3 0 -9 22 -12 23 -32 53
-45 67 -28 30 -88 77 -98 77 -4 0 12 -15 35 -33z"/>
<path d="M930 2710 c0 -5 5 -10 11 -10 5 0 7 5 4 10 -3 6 -8 10 -11 10 -2 0
-4 -4 -4 -10z"/>
<path d="M7098 2603 c12 -2 32 -2 45 0 12 2 2 4 -23 4 -25 0 -35 -2 -22 -4z"/>
<path d="M7178 2593 c6 -2 18 -2 25 0 6 3 1 5 -13 5 -14 0 -19 -2 -12 -5z"/>
<path d="M28 2213 c6 -2 18 -2 25 0 6 3 1 5 -13 5 -14 0 -19 -2 -12 -5z"/>
<path d="M7288 2213 c7 -3 16 -2 19 1 4 3 -2 6 -13 5 -11 0 -14 -3 -6 -6z"/>
<path d="M7373 2203 c9 -2 25 -2 35 0 9 3 1 5 -18 5 -19 0 -27 -2 -17 -5z"/>
<path d="M7630 2191 c19 -5 103 -11 186 -15 83 -3 159 -8 168 -12 9 -3 16 -2
16 4 0 13 -76 20 -260 26 -89 3 -132 2 -110 -3z"/>
<path d="M50 1680 c0 -5 9 -14 20 -20 22 -12 27 -1 8 18 -14 14 -28 16 -28 2z"/>
<path d="M6315 1638 c6 -32 -2 -36 -21 -10 -13 16 -13 16 -14 -1 0 -12 -5 -16
-12 -11 -7 4 -3 -3 9 -15 25 -23 44 -28 41 -8 -2 6 3 11 10 10 16 -4 15 6 -4
37 l-15 25 6 -27z"/>
<path d="M6330 1650 c0 -5 7 -10 16 -10 8 0 12 5 9 10 -3 6 -10 10 -16 10 -5
0 -9 -4 -9 -10z"/>
<path d="M6451 1618 c17 -34 19 -34 19 -5 0 18 -5 27 -15 27 -13 0 -14 -4 -4
-22z"/>
<path d="M6366 1605 c4 -8 10 -12 15 -9 11 6 2 24 -11 24 -5 0 -7 -7 -4 -15z"/>
<path d="M6220 1570 c-8 -5 -10 -10 -5 -10 6 0 17 5 25 10 8 5 11 10 5 10 -5
0 -17 -5 -25 -10z"/>
<path d="M6209 1532 c-13 -15 -12 -16 3 -4 13 10 17 10 21 0 4 -9 6 -9 6 -1 2
20 -16 24 -30 5z"/>
<path d="M6210 1500 c0 -5 7 -10 16 -10 8 0 12 5 9 10 -3 6 -10 10 -16 10 -5
0 -9 -4 -9 -10z"/>
<path d="M120 1470 c0 -11 5 -20 10 -20 6 0 10 9 10 20 0 11 -4 20 -10 20 -5
0 -10 -9 -10 -20z"/>
<path d="M6195 1470 c-3 -5 -1 -10 4 -10 6 0 11 5 11 10 0 6 -2 10 -4 10 -3 0
-8 -4 -11 -10z"/>
<path d="M136 1433 c-12 -13 -6 -53 9 -53 9 0 15 9 15 24 0 26 -12 40 -24 29z"/>
<path d="M186 1375 c-4 -11 -10 -15 -12 -9 -5 12 -64 6 -64 -7 0 -5 6 -9 13
-9 6 -1 2 -6 -11 -13 -12 -7 -19 -16 -15 -21 4 -4 1 -11 -7 -16 -10 -7 -11
-10 -2 -10 7 0 12 -13 12 -30 0 -17 6 -33 14 -36 8 -3 12 -12 10 -19 -3 -7 0
-24 7 -36 12 -23 12 -23 20 -4 4 11 8 14 8 8 1 -7 10 -13 21 -13 13 0 20 -7
20 -20 0 -11 5 -20 10 -20 6 0 10 -7 10 -15 0 -18 -12 -19 -28 -3 -9 9 -12 8
-12 -6 0 -12 -5 -16 -15 -12 -8 3 -15 2 -15 -3 0 -4 -19 -7 -42 -5 -24 2 -58
1 -76 -2 l-32 -6 0 -97 0 -96 120 2 c66 1 118 -2 115 -7 -3 -4 4 -6 15 -3 19
5 25 -7 21 -44 -1 -6 3 -14 9 -18 8 -5 7 -12 -2 -23 -11 -13 -10 -15 15 -10
19 4 27 1 27 -8 0 -8 -7 -14 -16 -14 -8 0 -12 -4 -9 -10 3 -5 1 -10 -4 -10 -6
0 -11 -8 -11 -18 0 -11 -9 -27 -20 -37 -17 -16 -20 -16 -20 -2 0 24 -13 28
-49 14 -29 -11 -42 -27 -22 -27 5 0 16 -3 25 -6 11 -4 16 -1 16 10 0 9 4 16
10 16 5 0 8 -19 7 -42 -1 -24 1 -54 4 -68 4 -14 4 -19 2 -13 -6 18 -48 16 -63
-2 -7 -8 -16 -12 -22 -9 -5 3 -15 1 -22 -5 -7 -6 -22 -8 -31 -4 -16 6 -15 8 6
16 20 9 21 11 6 14 -14 4 -16 8 -6 19 9 11 8 14 -4 14 -15 0 -32 28 -22 38 3
3 5 0 5 -6 0 -7 9 -12 20 -12 11 0 20 5 20 10 0 6 -5 9 -12 8 -6 -2 -14 6 -16
16 -3 15 0 18 18 13 13 -3 20 -1 17 6 -2 6 -16 14 -31 18 -25 7 -27 6 -23 -13
6 -21 -40 -78 -62 -78 -6 0 -11 -13 -11 -28 0 -20 7 -33 25 -42 19 -10 24 -19
20 -38 -4 -26 -15 -43 -15 -24 0 7 -8 12 -17 12 -15 0 -16 -2 -3 -10 8 -5 10
-10 4 -10 -8 0 -12 -38 -12 -120 0 -66 4 -120 9 -120 5 0 9 -7 9 -15 0 -8 5
-15 11 -15 6 0 9 -6 6 -14 -3 -7 -1 -18 5 -24 6 -6 7 -15 3 -22 -5 -8 -11 -6
-20 7 -8 10 -10 22 -5 28 5 6 2 18 -5 28 -11 16 -13 4 -14 -86 l-1 -105 396
-1 c437 -2 398 -8 379 56 -3 12 -1 24 4 28 6 3 8 20 4 38 -6 28 -4 30 9 20 8
-7 18 -10 21 -6 4 3 20 6 37 5 22 0 30 4 30 16 0 15 2 15 10 2 6 -9 6 -18 0
-24 -6 -6 -10 -19 -10 -31 1 -19 2 -19 21 4 19 23 20 23 34 5 13 -18 14 -18
21 -1 6 17 7 17 25 1 28 -25 47 -5 30 32 -12 26 -12 26 -33 8 -20 -19 -20 -19
-13 14 4 20 3 32 -4 32 -15 0 -14 47 2 56 6 4 9 4 5 -1 -7 -8 19 -34 35 -35
11 0 8 35 -4 47 -9 9 0 15 32 23 41 11 42 13 24 26 -10 8 -14 14 -8 14 8 0 10
12 6 34 -3 18 -1 36 5 40 13 8 24 -25 24 -71 0 -19 6 -46 14 -61 17 -33 11
-39 -21 -22 -14 7 -28 10 -32 7 -3 -4 -2 -7 4 -7 6 0 9 -15 6 -36 -3 -30 -1
-35 14 -32 10 2 18 9 18 16 0 22 20 17 23 -6 2 -13 8 -20 14 -16 7 4 8 2 4 -5
-4 -6 -2 -18 4 -26 13 -16 1 -40 -28 -58 -14 -9 -6 -55 14 -74 8 -9 46 -13
113 -13 100 0 100 0 92 23 -14 35 -63 87 -86 88 -17 1 -17 2 -2 6 13 3 16 10
11 26 -4 12 -11 24 -16 25 -5 2 -3 11 3 19 10 11 10 16 0 22 -6 4 -11 13 -9
18 3 12 -39 53 -55 53 -5 0 -5 6 2 13 17 21 -8 78 -33 75 -10 -2 -24 6 -30 17
-6 10 -19 26 -29 35 -17 14 -15 50 3 50 13 0 60 -52 54 -61 -3 -5 0 -9 5 -9
15 0 14 4 -9 47 -14 27 -16 39 -8 44 14 9 18 59 4 59 -5 0 -6 3 -3 6 4 4 13 2
21 -5 11 -9 15 -6 21 16 5 16 8 31 7 36 -4 17 14 6 66 -44 15 -14 33 -24 40
-21 6 2 15 -3 18 -12 3 -9 12 -16 19 -16 7 0 20 -11 30 -24 12 -15 24 -22 37
-18 11 2 37 -1 58 -8 22 -7 46 -9 57 -5 10 5 22 9 27 9 5 1 11 7 14 15 3 8 0
11 -7 7 -6 -4 -11 -2 -11 5 0 7 10 9 25 7 19 -4 25 -1 25 13 0 12 -5 16 -15
13 -12 -5 -15 3 -15 35 0 23 -4 41 -10 41 -5 0 -10 5 -10 11 0 6 8 8 19 4 14
-4 20 0 23 20 5 24 4 24 -12 10 -23 -21 -30 -9 -23 41 5 39 3 44 -18 54 -19 9
-24 19 -24 51 -1 21 3 39 7 39 4 0 8 5 8 11 0 6 -7 8 -16 5 -13 -5 -15 -1 -11
19 3 21 1 25 -12 20 -11 -4 -13 -3 -5 4 14 15 373 33 639 31 121 0 298 2 393
6 128 4 172 3 172 -6 0 -7 7 -4 17 6 16 15 17 15 24 -2 7 -18 7 -18 14 -1 6
15 10 16 16 5 13 -20 11 -26 -8 -24 -15 1 -18 -7 -17 -39 0 -51 6 -69 22 -75
8 -3 12 -9 10 -12 -2 -3 6 -15 16 -27 22 -24 5 -29 -18 -5 -9 8 -16 12 -16 7
0 -5 -16 -9 -35 -9 -28 0 -43 -8 -71 -38 -37 -39 -66 -95 -57 -109 2 -4 0 -13
-5 -20 -17 -20 -42 -100 -42 -135 0 -18 -5 -43 -11 -54 -7 -13 -7 -18 -1 -14
6 3 14 1 18 -5 4 -8 3 -9 -4 -5 -19 12 -14 -12 6 -24 13 -9 13 -10 1 -7 -12 4
-15 -1 -12 -21 3 -23 2 -24 -6 -7 -14 30 -29 95 -36 148 -4 26 -11 47 -16 47
-9 0 -5 -45 8 -95 6 -20 5 -20 -15 -1 l-21 18 9 -33 c6 -19 10 -35 10 -37 0
-2 5 0 10 3 13 8 13 -35 0 -55 -8 -12 -11 -13 -19 -1 -5 7 -11 9 -14 4 -3 -5
-2 -15 4 -23 5 -8 9 -32 9 -52 0 -20 5 -40 10 -43 6 -4 10 5 10 20 0 14 4 24
9 21 14 -9 19 -55 7 -60 -7 -3 -6 -5 2 -5 7 -1 15 6 19 15 4 12 8 13 14 3 8
-14 18 29 22 96 3 33 7 40 25 41 18 1 21 -3 16 -23 -4 -13 -1 -29 4 -36 8 -9
8 -25 1 -52 -6 -22 -13 -51 -15 -65 l-5 -25 15 25 c13 23 15 24 22 6 9 -25
-21 -48 -53 -40 -17 5 -23 2 -23 -11 0 -12 -7 -8 -26 15 -19 22 -30 28 -37 21
-20 -20 -25 -11 -32 64 -4 41 -11 75 -16 75 -6 0 -8 4 -5 9 3 5 -1 14 -9 21
-19 15 -19 15 1 -72 13 -54 14 -76 5 -90 -6 -10 -11 -27 -11 -37 0 -11 -4 -23
-10 -26 -15 -9 -58 39 -63 71 -3 16 -4 7 -4 -21 1 -38 -2 -50 -13 -50 -9 0
-14 8 -12 20 2 17 0 16 -12 -5 -9 -14 -16 -38 -17 -55 l-1 -30 -8 30 -8 30 -2
-30 c-2 -21 -4 -24 -7 -10 -15 73 -14 71 -24 52 -6 -10 -14 -15 -20 -12 -5 4
-9 -1 -9 -9 0 -9 -4 -16 -10 -16 -5 0 -10 -9 -10 -20 0 -20 4 -21 243 -18
l242 3 -3 32 c-2 17 2 34 7 38 7 4 11 -8 11 -32 l1 -38 16 35 c9 19 15 39 14
43 0 4 -3 22 -5 40 -2 19 -10 33 -19 35 -10 2 -15 12 -13 30 1 15 -2 33 -7 40
-5 7 -7 16 -3 20 4 4 13 -1 20 -10 7 -10 17 -14 21 -10 5 4 5 2 2 -4 -4 -7 0
-15 9 -18 8 -3 12 -2 9 4 -3 6 -2 10 4 10 15 0 26 -23 13 -28 -7 -2 -12 -11
-12 -20 0 -12 6 -9 18 10 14 22 21 25 30 16 9 -9 12 -9 12 1 0 11 4 11 23 -1
15 -9 51 -13 112 -12 104 2 140 7 161 25 9 7 30 13 47 14 18 1 48 5 68 9 35 7
37 6 65 -38 23 -36 35 -46 56 -46 15 0 33 7 42 15 21 21 29 19 16 -5 -7 -14
-7 -20 0 -20 5 0 10 -5 10 -10 0 -6 -3 -9 -7 -9 -5 1 -19 0 -33 -1 -15 -1 -1
-7 35 -15 36 -7 49 -13 33 -14 -32 -1 -33 -6 -13 -55 18 -44 45 -48 45 -8 0
15 6 34 12 40 10 10 10 15 -2 22 -13 8 -13 10 1 10 23 0 30 -11 17 -27 -9 -11
-9 -16 3 -23 11 -7 11 -12 1 -22 -6 -6 -12 -15 -12 -20 0 -9 33 2 41 14 3 5
14 5 24 2 18 -7 18 -8 -1 -15 -10 -4 111 -7 270 -7 160 0 296 2 303 5 7 3 13
14 13 25 0 17 -2 18 -15 8 -19 -16 -32 -5 -16 13 6 8 9 22 5 31 -4 10 0 18 10
22 15 6 15 9 -3 26 -28 25 -27 42 0 28 27 -15 32 -8 18 24 -15 31 -25 33 -40
5 -7 -14 -17 -19 -30 -16 -10 3 -17 1 -14 -3 3 -5 0 -12 -6 -16 -7 -4 -9 -3
-5 4 3 6 2 13 -4 17 -5 3 -10 19 -10 35 0 38 -29 74 -47 58 -10 -8 -13 -1 -13
35 0 36 4 46 20 50 14 4 20 14 20 34 0 17 8 33 20 41 14 8 20 9 20 1 0 -7 10
-9 25 -6 22 4 25 1 23 -17 -2 -15 2 -21 15 -20 31 3 20 -41 -17 -69 -18 -15
-36 -23 -40 -20 -3 4 -6 -6 -6 -20 0 -18 5 -27 16 -27 11 0 14 6 9 20 -10 32
15 23 26 -9 11 -32 39 -50 39 -25 0 8 -4 13 -9 10 -5 -4 -7 3 -4 14 3 11 10
20 15 20 5 0 6 5 3 10 -4 6 -11 7 -17 4 -6 -4 -9 -1 -6 7 3 8 14 13 26 12 21
-2 38 22 22 32 -5 3 -5 18 0 33 4 17 3 36 -2 47 -8 12 -7 20 3 26 10 6 15 2
17 -14 6 -34 21 -49 37 -34 10 9 10 16 -2 33 -16 25 -9 33 41 44 17 4 30 12
29 18 -2 6 6 28 17 47 24 43 25 52 5 35 -13 -10 -15 -9 -15 8 0 12 4 24 10 27
16 10 12 38 -5 31 -8 -3 -15 -1 -15 4 0 6 -7 10 -15 10 -8 0 -20 9 -27 19 -7
11 -18 17 -27 13 -13 -5 -14 -3 -5 9 7 8 8 22 3 34 -4 11 -8 14 -8 7 -1 -16
-25 -42 -39 -42 -5 0 -17 9 -28 21 -13 14 -27 19 -46 17 -16 -3 -28 -1 -28 4
0 4 -5 8 -11 8 -6 0 -9 -7 -5 -15 3 -8 1 -15 -3 -15 -5 0 -11 7 -15 15 -4 11
-10 13 -23 6 -24 -12 -106 -46 -113 -46 -3 0 -20 -11 -37 -25 -32 -23 -44 -50
-23 -50 6 0 10 -4 10 -10 0 -5 -9 -10 -20 -10 -11 0 -20 -7 -20 -15 0 -8 -4
-15 -9 -15 -5 0 -11 -12 -13 -28 -2 -21 -9 -28 -30 -30 -28 -3 -30 0 -31 45 0
12 -4 20 -9 17 -4 -3 -5 -10 -2 -16 5 -7 2 -8 -5 -4 -7 5 -10 14 -7 22 3 9 -4
16 -21 20 l-27 7 25 10 c13 6 29 11 34 11 6 1 10 6 10 11 1 16 36 65 44 61 4
-3 7 3 8 12 0 9 4 38 8 64 7 44 6 48 -13 48 -13 0 -23 -9 -28 -22 -7 -25 -44
-76 -44 -62 0 4 -13 -5 -30 -21 -24 -23 -30 -25 -30 -11 0 9 4 15 9 11 5 -3
12 -1 15 4 4 5 2 12 -3 15 -5 4 -13 2 -16 -4 -4 -6 -16 -8 -28 -5 -17 5 -18 4
-8 -4 8 -5 16 -17 17 -26 1 -9 0 -14 -3 -11 -4 3 -15 -1 -24 -10 -17 -15 -19
-15 -25 -1 -3 9 -3 21 1 26 3 7 0 8 -9 5 -25 -9 -19 19 8 45 18 17 25 19 29 9
4 -11 7 -11 18 1 11 10 11 15 1 18 -6 3 -12 9 -12 13 0 15 82 100 96 100 8 0
11 6 8 15 -5 11 1 15 24 15 23 0 32 -6 38 -22 l6 -21 17 22 c14 18 29 23 79
26 61 4 62 3 63 -23 1 -21 2 -23 6 -7 7 27 22 35 63 33 l35 -1 -40 -7 -40 -7
53 -2 c30 0 52 3 52 9 0 6 17 10 38 10 40 -2 143 9 154 16 4 3 147 4 317 4
313 0 356 -4 344 -36 -2 -6 0 -15 5 -18 6 -3 8 -16 4 -28 -3 -13 -1 -19 5 -15
6 4 13 -3 17 -16 6 -23 4 -33 -4 -30 -3 1 -6 -6 -7 -15 -1 -9 -7 -36 -13 -58
-15 -53 1 -138 35 -188 13 -19 20 -38 17 -42 -4 -4 -2 -4 4 -1 7 4 14 -5 18
-23 3 -17 9 -44 12 -61 4 -17 13 -33 20 -36 8 -3 14 -13 14 -22 0 -12 8 -17
23 -17 19 1 22 -4 22 -40 -1 -30 3 -40 12 -37 7 3 13 0 13 -6 0 -6 9 -11 20
-11 11 0 22 -6 24 -13 2 -6 11 -36 20 -66 24 -80 31 -131 17 -131 -6 0 -11 7
-11 15 0 8 -4 15 -10 15 -5 0 -10 -5 -10 -11 0 -5 -4 -7 -10 -4 -5 3 -12 -6
-16 -20 -7 -29 3 -46 15 -26 7 11 10 11 14 0 4 -12 7 -11 16 1 8 11 11 11 11
2 0 -10 53 -12 246 -12 226 1 245 3 225 17 -17 11 -21 22 -17 42 3 14 3 20 0
14 -12 -29 -24 -10 -22 35 1 26 -1 53 -5 59 -4 7 -9 42 -11 78 l-2 65 40 15
c23 8 50 13 61 11 11 -2 32 5 48 16 15 11 27 15 27 9 0 -6 -4 -11 -10 -11 -5
0 -10 -4 -10 -10 0 -18 29 -10 35 10 3 11 10 20 15 20 5 0 7 6 4 14 -3 8 -1
17 5 21 6 3 11 19 11 35 0 15 6 30 13 33 8 3 6 9 -7 19 -14 11 -16 19 -8 34 5
10 19 40 32 66 22 49 37 65 25 28 -4 -14 -2 -19 7 -17 7 2 10 2 6 0 -19 -11
-6 -23 17 -17 16 4 25 2 25 -6 0 -6 5 -8 10 -5 6 3 10 -1 10 -11 0 -13 3 -14
15 -4 13 11 14 8 8 -20 -4 -21 -2 -31 4 -27 15 9 42 -28 32 -44 -7 -11 -9 -11
-9 3 0 9 -4 19 -9 22 -4 3 -6 -6 -3 -19 2 -14 8 -25 13 -25 10 0 44 -72 53
-112 3 -15 1 -30 -5 -34 -6 -4 -9 -20 -6 -38 5 -25 4 -27 -4 -11 -5 11 -21 25
-34 31 -24 12 -25 12 -22 -36 1 -26 6 -45 11 -42 5 3 7 -7 4 -21 -3 -15 -1
-24 3 -21 5 3 9 12 9 21 0 26 15 4 15 -23 1 -17 -5 -24 -17 -24 -27 0 -22 -19
7 -26 14 -3 25 -10 25 -15 0 -5 -7 -6 -16 -2 -12 4 -14 0 -8 -23 4 -16 8 -31
10 -33 2 -2 -1 -12 -7 -22 -10 -19 10 -19 809 -18 l820 1 -4 21 c-4 21 -4 21
6 -1 9 -22 13 -23 142 -20 129 3 133 4 136 25 4 25 -22 33 -32 11 -3 -7 -3 -1
0 15 5 22 3 27 -14 27 -17 0 -23 11 -35 62 -9 36 -16 52 -17 38 -1 -14 -4 -19
-7 -12 -2 6 -9 10 -14 6 -9 -5 -12 10 -14 76 0 19 -5 42 -10 50 -5 8 -11 33
-13 55 -2 22 -7 44 -11 50 -5 5 -7 18 -6 27 2 10 -1 18 -6 18 -4 0 -6 7 -3 15
4 8 1 15 -5 15 -6 0 -11 8 -11 18 0 10 -9 28 -20 40 -11 12 -20 26 -20 32 0 5
-9 27 -20 47 -10 20 -17 40 -14 44 2 4 -7 6 -20 3 -21 -3 -17 4 29 51 29 30
57 55 63 55 13 0 72 61 72 74 1 31 15 34 105 20 137 -20 125 -27 125 70 l0 83
-132 8 c-231 12 -242 14 -283 35 -34 18 -55 21 -134 19 l-94 -3 -29 35 c-16
18 -56 74 -90 122 -33 49 -66 91 -74 94 -8 3 -11 10 -7 17 4 6 0 6 -9 -2 -13
-10 -17 -10 -22 0 -4 9 -5 9 -4 -2 1 -8 -3 -26 -9 -40 -20 -49 -25 -165 -9
-204 l15 -36 -27 0 c-17 0 -49 16 -81 40 l-54 41 -136 -6 c-75 -4 -158 -10
-186 -15 -61 -10 -94 -8 -98 5 -1 6 8 11 21 13 27 4 28 16 3 48 -11 13 -17 33
-14 43 3 12 -2 20 -16 24 -12 3 -21 12 -21 21 0 9 -4 16 -10 16 -5 0 -10 -12
-10 -27 0 -22 -2 -25 -10 -13 -6 10 -10 11 -10 3 0 -7 -4 -13 -10 -13 -5 0
-10 11 -10 25 0 30 -20 33 -27 4 -3 -11 -11 -18 -19 -15 -7 3 -16 1 -20 -5 -4
-7 -10 -6 -18 0 -7 6 -15 9 -17 7 -2 -2 -18 -6 -36 -9 -26 -5 -31 -3 -26 8 7
19 -7 19 -34 0 -13 -9 -23 -11 -25 -5 -2 7 -16 5 -40 -5 -47 -19 -68 -19 -68
-1 0 21 -20 30 -33 16 -9 -9 -9 -14 -1 -17 9 -3 9 -10 1 -27 -6 -13 -17 -22
-23 -19 -8 3 -11 -2 -7 -16 4 -15 1 -21 -11 -21 -23 0 -20 26 6 44 12 9 17 16
11 16 -6 0 -18 3 -26 6 -19 7 -33 -61 -17 -81 8 -10 5 -12 -15 -12 -15 0 -25
5 -25 13 0 17 -2 17 -33 1 -24 -13 -24 -14 -6 -25 35 -22 22 -39 -33 -45 -44
-6 -516 0 -617 7 -19 2 -37 8 -39 14 -2 8 -9 7 -19 -4 -13 -13 -17 -13 -24 -2
-6 8 -9 9 -9 2 0 -7 -15 -12 -34 -12 -19 0 -39 -3 -45 -7 -6 -3 -11 -2 -11 2
0 5 -26 8 -57 7 -87 -3 -1019 -6 -1162 -5 -69 1 -129 5 -133 7 -5 3 16 32 46
64 57 60 66 79 43 99 -10 8 -46 -6 -147 -59 -73 -39 -135 -70 -137 -70 -2 0
-8 10 -14 23 -9 20 -9 20 -6 -6 7 -44 -27 -55 -160 -53 -62 0 -113 2 -113 3 0
13 70 34 103 31 32 -2 42 1 42 12 0 21 -66 51 -113 52 -47 0 -69 -13 -103 -61
-24 -34 -31 -38 -73 -39 -25 -1 -46 2 -46 8 0 5 9 10 20 10 26 0 26 26 1 40
-11 5 -41 10 -67 10 -43 0 -51 -4 -90 -45 -34 -35 -44 -41 -47 -27 -4 16 -5
16 -6 0 -1 -17 -27 -18 -383 -19 -211 -1 -394 -3 -408 -4 -86 -9 -687 -8
-1090 2 -261 7 -539 14 -617 15 -131 3 -140 4 -132 21 5 9 19 17 31 17 12 0
18 3 14 7 -4 4 -23 6 -44 6 -20 -1 -31 0 -24 3 15 7 46 64 38 72 -3 3 -6 2 -6
-1 0 -4 -11 3 -24 14 -20 17 -23 26 -16 49 6 20 3 36 -10 58 -10 16 -20 40
-22 53 -3 23 -4 23 -12 4z m7036 -155 c32 -46 66 -93 77 -104 11 -12 21 -27
23 -35 3 -15 2 -15 -94 -25 -72 -7 -90 1 -109 51 -18 47 -12 56 21 33 17 -12
30 -16 30 -10 0 6 -14 19 -30 28 -17 10 -28 23 -25 30 3 8 5 28 6 45 0 29 1
30 12 13 34 -52 69 -97 73 -93 3 3 -13 33 -35 67 -36 58 -44 96 -17 87 6 -2
37 -41 68 -87z m-7047 -10 c3 -5 1 -10 -4 -10 -6 0 -11 5 -11 10 0 6 2 10 4
10 3 0 8 -4 11 -10z m6139 -15 c3 -9 0 -15 -9 -15 -8 0 -15 7 -15 15 0 8 4 15
9 15 5 0 11 -7 15 -15z m-6104 -5 c0 -5 -4 -10 -10 -10 -5 0 -10 5 -10 10 0 6
5 10 10 10 6 0 10 -4 10 -10z m6339 -19 c7 -5 9 -11 4 -14 -6 -4 -19 0 -29 8
-15 11 -16 14 -4 15 8 0 21 -4 29 -9z m-6304 -12 c11 -16 1 -19 -13 -3 -7 8
-8 14 -3 14 5 0 13 -5 16 -11z m6155 -6 c0 -9 3 -14 6 -11 9 10 55 -43 48 -54
-5 -8 -1 -9 10 -5 10 4 15 3 11 -3 -3 -6 -39 -10 -79 -10 -64 0 -75 3 -96 25
-13 14 -18 25 -11 25 7 0 9 5 6 10 -3 6 -2 10 4 10 5 0 12 -6 14 -12 4 -10 8
-9 16 2 5 8 13 11 17 7 4 -4 13 2 21 13 17 24 33 26 33 3z m594 -64 l40 -29
-31 0 c-19 0 -43 10 -61 25 -36 31 -63 34 -37 5 18 -19 17 -20 -7 -20 -13 0
-33 7 -44 15 -10 8 -26 14 -34 14 -11 0 -10 -3 4 -14 18 -14 18 -15 2 -15 -9
0 -31 7 -47 16 -17 8 -38 14 -47 12 -13 -3 -10 -8 12 -19 l29 -16 -69 -6
c-111 -9 -257 -50 -386 -106 -126 -55 -143 -61 -123 -45 31 25 273 139 360
169 57 19 111 29 198 35 65 5 122 11 125 15 13 13 78 -7 116 -36z m-724 11 c0
-11 -4 -20 -9 -20 -5 0 -11 9 -14 20 -3 13 0 20 9 20 8 0 14 -9 14 -20z m-270
-21 c0 -5 -4 -9 -10 -9 -5 0 -10 7 -10 16 0 8 5 12 10 9 6 -3 10 -10 10 -16z
m34 6 c-4 -8 -10 -15 -15 -15 -4 0 -6 7 -3 15 4 8 10 15 15 15 4 0 6 -7 3 -15z
m-2967 -1 c-3 -3 -12 -4 -19 -1 -8 3 -5 6 6 6 11 1 17 -2 13 -5z m4490 -24
c29 -11 156 -137 145 -144 -4 -2 -21 -7 -38 -10 -27 -6 -54 -22 -181 -109 -33
-22 -45 -57 -20 -57 7 0 50 18 96 40 84 41 158 63 174 53 12 -7 -22 -42 -63
-63 -20 -10 -42 -30 -50 -45 -25 -46 -62 -58 -206 -63 -108 -4 -151 -1 -240
17 -168 34 -279 68 -374 116 -128 64 -218 80 -368 66 -64 -7 -146 -18 -182
-26 -36 -8 -83 -16 -105 -19 l-40 -4 26 22 c27 23 201 103 299 138 188 65 314
81 615 73 162 -4 245 -2 315 8 122 18 162 19 197 7z m-2437 -49 c15 -28 12
-97 -4 -110 -17 -15 -22 -7 -31 44 -6 40 -6 40 10 15 12 -18 15 -20 10 -5 -15
45 -17 75 -7 75 6 0 16 -9 22 -19z m2587 3 c-3 -3 -12 -4 -19 -1 -8 3 -5 6 6
6 11 1 17 -2 13 -5z m46 -31 c-7 -2 -21 -2 -30 0 -10 3 -4 5 12 5 17 0 24 -2
18 -5z m-4874 -40 c-1 -5 -1 -15 0 -23 1 -12 3 -12 12 2 5 10 16 15 24 12 8
-4 15 -1 15 6 0 7 9 1 21 -14 l21 -27 -35 -38 c-19 -21 -36 -44 -39 -51 -6
-19 -86 -3 -92 18 -2 9 -8 28 -11 42 -4 14 -4 22 1 17 4 -4 13 6 20 23 9 19
18 28 27 24 8 -3 18 -1 22 5 7 13 16 15 14 4z m179 -14 c-19 -13 -28 -11 -28
5 0 9 7 12 21 9 16 -4 17 -8 7 -14z m1857 11 c3 -5 1 -10 -4 -10 -6 0 -11 5
-11 10 0 6 2 10 4 10 3 0 8 -4 11 -10z m31 -25 c-5 -20 -3 -23 11 -18 15 6 16
5 3 -9 -13 -14 -16 -14 -27 1 -15 19 -17 34 -3 26 6 -3 10 1 10 9 0 9 3 16 6
16 3 0 3 -11 0 -25z m407 10 c32 -11 52 -12 78 -5 99 29 132 0 183 -158 53
-164 48 -240 -19 -320 -46 -55 -98 -75 -202 -80 -106 -5 -159 6 -247 49 -91
45 -94 49 -51 92 47 47 44 75 -8 102 l-39 20 5 65 c3 36 10 82 15 102 9 33 8
37 -7 29 -43 -24 -61 -63 -62 -140 -1 -28 -6 -54 -10 -57 -5 -3 -7 -9 -5 -13
3 -4 1 -13 -4 -21 -6 -10 -13 -4 -26 24 -17 35 -17 39 -1 64 9 15 25 45 36 68
48 102 156 169 313 193 4 1 27 -6 51 -14z m-443 -29 c14 -18 14 -18 -7 -6 -12
8 -19 18 -16 23 3 4 6 7 7 5 1 -2 8 -12 16 -22z m-3873 0 c28 -8 54 -11 57 -8
3 3 6 -7 6 -22 0 -15 5 -37 11 -48 13 -25 -2 -38 -34 -30 -16 4 -19 2 -14 -11
3 -9 -3 -36 -13 -59 -11 -24 -20 -39 -20 -34 0 5 -6 3 -14 -3 -22 -18 -76 -10
-76 11 0 10 -4 18 -10 18 -5 0 -10 -7 -10 -15 0 -8 -4 -15 -10 -15 -5 0 -10 9
-10 21 0 11 -4 17 -10 14 -5 -3 -10 -1 -10 4 0 6 -7 11 -15 11 -8 0 -15 5 -15
11 0 12 -29 38 -42 39 -5 0 -8 -9 -8 -20 0 -11 -5 -20 -11 -20 -6 0 -8 7 -5
16 4 9 1 23 -5 30 -6 7 -7 19 -3 25 5 9 1 10 -14 7 -15 -4 -22 -2 -22 8 0 8 6
14 13 15 6 0 2 5 -10 11 -32 15 -28 32 10 45 48 15 224 15 284 -1z m6711 -8
c27 -27 14 -43 -35 -43 -36 0 -71 -11 -141 -44 -50 -24 -94 -42 -97 -39 -8 7
124 104 166 122 42 19 91 20 107 4z m-7236 -18 c5 -12 7 -11 7 3 1 31 36 16
37 -15 1 -15 -3 -25 -8 -22 -5 4 -8 -3 -6 -14 2 -12 -1 -21 -7 -21 -5 0 -9 10
-8 22 2 16 -1 14 -9 -7 -8 -23 -8 -31 1 -34 12 -4 16 -42 3 -42 -12 0 -42 39
-42 55 0 8 -5 15 -10 15 -13 0 -9 63 4 72 15 10 30 5 38 -12z m107 -11 c-26
-36 -34 -36 -47 0 -10 30 -10 30 29 29 l39 0 -21 -29z m5001 -34 c0 -5 -5 -3
-10 5 -5 8 -10 20 -10 25 0 6 5 3 10 -5 5 -8 10 -19 10 -25z m1055 -1 c33 -8
83 -28 111 -43 27 -16 69 -35 92 -42 23 -6 39 -16 35 -22 -10 -17 -112 2 -201
39 -108 44 -203 64 -306 64 -44 0 -77 2 -74 5 9 9 152 20 218 17 36 -2 92 -10
125 -18z m-1725 -10 c0 -8 -5 -12 -10 -9 -6 4 -8 11 -5 16 9 14 15 11 15 -7z
m1337 0 c-3 -3 -12 -4 -19 -1 -8 3 -5 6 6 6 11 1 17 -2 13 -5z m-1356 -97 c0
-107 -1 -119 -14 -114 -6 2 -12 13 -12 25 0 11 -4 24 -8 28 -11 12 -8 66 3 59
7 -4 9 2 4 19 -3 13 -3 30 1 37 11 17 27 -15 26 -54z m-4404 -19 c-3 -7 -5 -2
-5 12 0 14 2 19 5 13 2 -7 2 -19 0 -25z m2341 11 c-12 -7 -24 -7 -35 0 -15 9
-12 10 17 10 29 0 32 -1 18 -10z m4126 -8 c16 -6 11 -12 -30 -38 -65 -40 -214
-113 -214 -103 0 10 88 92 122 114 15 10 33 14 39 10 7 -4 9 -3 5 4 -11 19 40
28 78 13z m-1144 -31 c0 -11 -4 -20 -9 -20 -5 0 -7 9 -4 20 3 11 7 20 9 20 2
0 4 -9 4 -20z m1220 3 c-8 -3 -35 -22 -60 -43 -58 -48 -99 -74 -106 -68 -3 3
8 17 23 31 79 73 99 87 128 86 17 0 23 -3 15 -6z m-4298 -13 c27 0 28 -2 17
-22 -6 -13 -20 -32 -30 -43 -22 -24 -34 -102 -13 -84 9 8 17 4 30 -16 15 -23
16 -30 4 -48 -9 -15 -10 -22 -1 -25 37 -12 59 -82 25 -82 -9 0 -12 5 -8 12 4
6 3 8 -3 5 -15 -10 -133 30 -133 45 0 5 5 6 10 3 6 -3 10 4 10 17 0 18 -2 20
-10 8 -7 -11 -10 -5 -10 23 0 23 5 37 13 37 9 0 8 3 -2 9 -7 5 -11 13 -7 19 3
6 1 12 -5 14 -17 6 -14 47 7 96 17 40 21 43 48 38 16 -3 42 -6 58 -6z m4506
-15 c8 -7 -86 -125 -110 -140 -41 -24 -34 -7 12 33 23 19 39 37 36 39 -3 3
-20 -7 -37 -21 -25 -21 -34 -24 -40 -14 -14 22 -10 28 25 43 19 8 37 19 41 25
8 13 4 13 -39 -5 -41 -17 -42 -16 -21 26 15 28 17 29 73 23 31 -4 58 -8 60 -9z
m-1578 -35 c-23 -18 -24 -19 -3 -14 18 5 21 3 16 -15 -3 -12 -13 -21 -22 -21
-12 0 -13 -2 -3 -9 11 -6 10 -11 -3 -25 -10 -9 -19 -16 -20 -14 -2 2 -1 31 2
65 4 46 10 63 22 66 30 7 37 -13 11 -33z m70 20 c0 -5 -4 -10 -9 -10 -6 0 -13
5 -16 10 -3 6 1 10 9 10 9 0 16 -4 16 -10z m160 -21 c0 -6 -4 -7 -10 -4 -5 3
-10 11 -10 16 0 6 5 7 10 4 6 -3 10 -11 10 -16z m-860 -10 c29 -16 40 -27 40
-45 0 -29 -38 -66 -64 -62 -25 4 -33 28 -9 29 12 1 10 3 -7 8 -14 4 -26 15
-28 25 -3 16 0 18 23 12 17 -4 24 -3 20 4 -3 5 -12 10 -20 10 -17 0 -28 17
-20 30 9 14 19 13 65 -11z m-5000 -9 c0 -5 -5 -10 -11 -10 -5 0 -7 5 -4 10 3
6 8 10 11 10 2 0 4 -4 4 -10z m3570 -5 c0 -7 -31 -75 -34 -75 -2 0 -2 10 0 23
l5 22 -12 -22 c-6 -12 -22 -24 -35 -27 -13 -4 -23 -10 -21 -15 1 -5 -2 -8 -8
-7 -5 0 -8 7 -7 15 2 7 -1 10 -7 6 -7 -3 -11 3 -12 17 -1 20 -2 21 -6 3 -7
-30 -23 -43 -23 -18 0 35 11 53 31 53 10 0 19 4 19 9 0 4 11 7 24 6 14 -2 27
3 30 10 4 10 56 10 56 0z m1287 -17 c-3 -8 -6 -5 -6 6 -1 11 2 17 5 13 3 -3 4
-12 1 -19z m-4640 -38 c16 -62 -9 -52 -27 10 -6 22 -5 30 4 30 6 0 17 -18 23
-40z m-79 9 c-22 -12 -23 -32 -4 -48 12 -10 13 -9 9 7 -2 11 0 23 6 26 14 9
54 -32 47 -50 -6 -16 5 -19 21 -3 11 11 18 -16 38 -151 3 -19 2 -28 -1 -20 -4
8 -12 22 -19 30 -8 8 -17 30 -22 48 -8 32 -9 32 -26 15 -10 -10 -24 -27 -32
-38 -14 -19 -14 -18 -15 16 0 21 -6 39 -13 42 -8 3 -19 31 -25 63 -13 62 -8
74 33 74 18 -1 19 -1 3 -11z m882 7 c0 -11 -19 -15 -25 -6 -3 5 1 10 9 10 9 0
16 -2 16 -4z m3130 -31 c0 -8 -6 -15 -14 -15 -17 0 -28 14 -19 24 12 12 33 6
33 -9z m-330 -10 c-7 -8 -20 -15 -28 -15 -13 0 -12 3 4 15 25 19 40 19 24 0z
m-391 -32 c-12 -15 -12 -16 6 -9 15 5 17 4 8 -5 -17 -17 -37 -1 -22 17 6 8 14
14 16 14 3 0 -1 -8 -8 -17z m396 7 c3 -6 -4 -10 -17 -10 -18 0 -20 2 -8 10 19
12 18 12 25 0z m-217 -35 c-3 -3 -9 2 -12 12 -6 14 -5 15 5 6 7 -7 10 -15 7
-18z m2362 -5 c0 -11 5 -20 10 -20 14 0 13 -27 -2 -36 -7 -5 -8 -3 -3 6 5 8 2
17 -6 24 -16 12 -22 46 -8 46 5 0 9 -9 9 -20z m-5965 -19 c-6 -5 -21 -12 -34
-16 -21 -6 -22 -5 -10 8 8 9 23 16 34 17 11 0 15 -3 10 -9z m2509 -37 c-3 -45
8 -82 29 -95 12 -8 2 -39 -13 -39 -6 0 -9 4 -5 10 3 5 -1 26 -10 46 -20 48
-20 124 1 124 1 0 0 -21 -2 -46z m1275 14 c-9 -17 -13 -18 -20 -7 -13 21 -11
25 11 26 17 2 19 -1 9 -19z m1232 -5 c-8 -15 -10 -15 -11 -2 0 17 10 32 18 25
2 -3 -1 -13 -7 -23z m34 -26 c-8 -31 -30 -53 -39 -38 -9 14 26 83 36 73 5 -5
6 -21 3 -35z m-4855 9 c0 -3 -4 -8 -10 -11 -5 -3 -10 -1 -10 4 0 6 5 11 10 11
6 0 10 -2 10 -4z m5327 -18 c-3 -8 -6 -5 -6 6 -1 11 2 17 5 13 3 -3 4 -12 1
-19z m-2950 -2 c-5 -12 14 -35 38 -46 5 -3 10 -11 11 -18 2 -10 -4 -9 -23 3
-13 9 -31 14 -38 11 -8 -3 -17 -1 -20 4 -4 6 1 10 9 10 9 0 16 5 16 11 0 5 -5
7 -11 4 -6 -4 -5 2 3 14 15 24 23 28 15 7z m-1640 -22 c10 -9 9 -13 -3 -18
-16 -6 -44 15 -44 33 0 12 29 3 47 -15z m2413 -5 c0 -14 -17 -10 -23 5 -4 10
-1 13 9 9 7 -3 14 -9 14 -14z m4315 11 c3 -5 1 -10 -4 -10 -6 0 -11 5 -11 10
0 6 2 10 4 10 3 0 8 -4 11 -10z m-6585 -9 c0 -5 -7 -11 -15 -15 -15 -5 -20 5
-8 17 9 10 23 9 23 -2z m2227 -6 c0 -8 -4 -12 -9 -9 -5 3 -6 10 -3 15 9 13 12
11 12 -6z m1689 -22 c-3 -3 5 -14 17 -24 12 -10 18 -18 14 -19 -12 0 -41 31
-43 46 -1 8 2 11 8 8 5 -3 7 -8 4 -11z m1044 7 c0 -5 -4 -10 -10 -10 -5 0 -10
5 -10 10 0 6 5 10 10 10 6 0 10 -4 10 -10z m-4975 -20 c3 -5 1 -10 -4 -10 -6
0 -11 5 -11 10 0 6 2 10 4 10 3 0 8 -4 11 -10z m1612 -16 c-7 -7 -37 7 -37 17
0 6 9 5 21 -1 11 -7 19 -14 16 -16z m563 11 c-7 -8 -9 -15 -5 -15 5 0 6 -2 3
-5 -3 -3 -12 -3 -21 1 -13 5 -14 9 -4 20 7 7 18 13 26 14 11 0 11 -3 1 -15z
m-733 -17 c-3 -8 -6 -5 -6 6 -1 11 2 17 5 13 3 -3 4 -12 1 -19z m768 12 c3 -5
1 -10 -4 -10 -6 0 -11 5 -11 10 0 6 2 10 4 10 3 0 8 -4 11 -10z m-3265 -21 c0
-5 -4 -9 -10 -9 -5 0 -10 7 -10 16 0 8 5 12 10 9 6 -3 10 -10 10 -16z m3713 1
c3 -11 1 -18 -4 -14 -5 3 -9 12 -9 20 0 20 7 17 13 -6z m-3688 -77 c3 -20 1
-33 -5 -33 -11 0 -11 0 -15 48 -3 41 12 29 20 -15z m2513 4 c5 -24 -15 -21
-21 4 -3 13 -1 19 6 16 7 -2 13 -11 15 -20z m4719 1 c-3 -8 -6 -5 -6 6 -1 11
2 17 5 13 3 -3 4 -12 1 -19z m-2 -28 c3 -5 1 -10 -4 -10 -6 0 -11 5 -11 10 0
6 2 10 4 10 3 0 8 -4 11 -10z m-7236 -34 c9 -10 8 -16 -4 -26 -13 -11 -15 -8
-15 14 0 30 3 32 19 12z m2561 4 c0 -5 -2 -10 -4 -10 -3 0 -8 5 -11 10 -3 6
-1 10 4 10 6 0 11 -4 11 -10z m830 -26 c0 -8 -4 -14 -10 -14 -5 0 -10 9 -10
21 0 11 5 17 10 14 6 -3 10 -13 10 -21z m-3432 -27 c24 -4 24 -4 -5 -6 -28 -1
-33 2 -32 22 1 15 3 17 6 5 2 -9 16 -19 31 -21z m7132 -9 c0 -5 -7 -8 -15 -8
-10 0 -15 10 -15 27 0 26 1 26 15 7 8 -10 15 -22 15 -26z m-4525 22 c3 -6 -1
-7 -9 -4 -18 7 -21 14 -7 14 6 0 13 -4 16 -10z m1366 3 c-10 -4 -10 -7 -1 -13
7 -4 11 -12 9 -18 -3 -7 -11 -5 -24 4 -17 13 -18 16 -5 24 8 5 20 9 25 9 6 0
4 -3 -4 -6z m3534 -33 c-3 -5 -11 -10 -16 -10 -6 0 -7 5 -4 10 3 6 11 10 16
10 6 0 7 -4 4 -10z m-7470 -11 c11 -17 0 -20 -21 -4 -17 13 -17 14 -2 15 9 0
20 -5 23 -11z m-15 -23 c0 -2 -13 -6 -30 -8 -16 -3 -30 -1 -30 4 0 4 14 8 30
8 17 0 30 -2 30 -4z"/>
<path d="M6328 1083 c7 -3 16 -2 19 1 4 3 -2 6 -13 5 -11 0 -14 -3 -6 -6z"/>
<path d="M7392 1015 c-77 -65 -29 -168 68 -148 43 8 80 49 80 88 0 79 -85 113
-148 60z m115 -7 c63 -59 -18 -160 -102 -128 -79 30 -36 148 54 150 14 0 35
-10 48 -22z"/>
<path d="M7417 994 c-11 -12 -8 -51 6 -62 7 -6 21 -6 35 -1 34 13 28 63 -8 67
-14 2 -29 0 -33 -4z"/>
<path d="M7250 896 c-12 -39 -5 -99 16 -133 15 -24 52 -48 61 -39 3 3 -6 11
-20 17 -40 18 -66 104 -47 154 6 15 9 30 6 32 -2 2 -9 -11 -16 -31z"/>
<path d="M6987 898 c-20 -25 -16 -46 18 -99 33 -51 72 -65 139 -50 138 31 106
113 -61 156 -73 19 -75 19 -96 -7z m107 -38 c20 1 20 2 -4 15 -37 21 -8 18 47
-6 49 -21 83 -46 83 -61 0 -4 -15 -17 -32 -28 -35 -21 -122 -28 -133 -10 -3 6
0 10 7 10 7 1 -1 7 -18 14 -17 8 -34 21 -37 29 -5 12 0 14 26 7 71 -18 87 -20
87 -11 0 5 -26 15 -57 22 -64 13 -79 22 -69 38 5 8 18 6 43 -4 19 -8 45 -15
57 -15z"/>
<path d="M7331 893 c-1 -33 25 -53 67 -52 34 2 35 2 7 6 -35 5 -54 19 -65 48
-9 20 -9 19 -9 -2z"/>
<path d="M2930 926 c0 -2 8 -10 18 -17 15 -13 16 -12 3 4 -13 16 -21 21 -21
13z"/>
<path d="M5213 909 c-28 -10 -52 -48 -60 -91 -4 -30 -1 -38 22 -56 35 -28 47
-28 83 3 67 56 31 172 -45 144z m51 -25 c9 -8 16 -29 16 -47 0 -55 -64 -99
-98 -65 -19 19 -14 73 9 102 23 29 50 33 73 10z"/>
<path d="M5197 864 c-11 -11 -8 -52 3 -59 17 -10 41 16 38 39 -3 21 -28 33
-41 20z"/>
<path d="M5442 814 c-12 -8 -22 -24 -22 -34 0 -17 6 -18 58 -13 71 7 85 18 53
44 -28 23 -59 24 -89 3z"/>
<path d="M1085 810 c-3 -5 1 -10 10 -10 9 0 13 5 10 10 -3 6 -8 10 -10 10 -2
0 -7 -4 -10 -10z"/>
<path d="M3535 530 c4 -6 11 -8 16 -5 14 9 11 15 -7 15 -8 0 -12 -5 -9 -10z"/>
<path d="M3900 1350 c0 -5 5 -10 10 -10 6 0 10 5 10 10 0 6 -4 10 -10 10 -5 0
-10 -4 -10 -10z"/>
<path d="M6085 1308 c2 -10 -1 -18 -6 -18 -5 0 -9 -4 -9 -9 0 -4 11 -6 25 -3
27 5 35 22 11 22 -8 0 -16 6 -19 13 -2 6 -3 4 -2 -5z"/>
<path d="M3854 1305 c3 -8 -2 -19 -12 -24 -14 -8 -14 -10 -2 -11 17 0 42 34
33 44 -12 12 -25 6 -19 -9z"/>
<path d="M3880 1275 c0 -8 4 -15 10 -15 5 0 7 7 4 15 -4 8 -8 15 -10 15 -2 0
-4 -7 -4 -15z"/>
<path d="M6185 1280 c-3 -5 -1 -10 4 -10 6 0 11 5 11 10 0 6 -2 10 -4 10 -3 0
-8 -4 -11 -10z"/>
<path d="M5880 1170 c0 -5 5 -10 11 -10 5 0 7 5 4 10 -3 6 -8 10 -11 10 -2 0
-4 -4 -4 -10z"/>
<path d="M6600 1170 c0 -5 5 -10 10 -10 6 0 10 5 10 10 0 6 -4 10 -10 10 -5 0
-10 -4 -10 -10z"/>
<path d="M1507 879 c6 -6 9 -19 6 -28 -4 -13 -3 -13 5 -2 12 16 5 41 -11 41
-8 0 -8 -3 0 -11z"/>
<path d="M3743 876 c-9 -11 -7 -13 13 -13 14 0 24 5 24 13 0 18 -21 17 -37 0z"/>
<path d="M3953 879 c11 -7 23 -7 35 0 14 9 11 10 -18 10 -29 0 -32 -1 -17 -10z"/>
<path d="M190 860 c0 -5 5 -10 10 -10 6 0 10 5 10 10 0 6 -4 10 -10 10 -5 0
-10 -4 -10 -10z"/>
<path d="M240 820 c0 -5 5 -10 11 -10 5 0 7 5 4 10 -3 6 -8 10 -11 10 -2 0 -4
-4 -4 -10z"/>
<path d="M3590 780 c0 -5 5 -10 10 -10 6 0 10 5 10 10 0 6 -4 10 -10 10 -5 0
-10 -4 -10 -10z"/>
<path d="M4075 760 c3 -5 8 -10 11 -10 2 0 4 5 4 10 0 6 -5 10 -11 10 -5 0 -7
-4 -4 -10z"/>
<path d="M4119 754 c-10 -13 -10 -17 1 -24 17 -10 30 -4 30 15 0 22 -16 26
-31 9z"/>
<path d="M7710 635 c0 -8 -6 -15 -12 -15 -9 0 -9 -3 1 -9 8 -5 12 -18 8 -30
-3 -12 -1 -19 3 -16 5 3 11 -13 15 -34 5 -31 10 -38 22 -34 10 4 14 2 10 -4
-4 -6 -1 -13 5 -16 10 -3 10 -7 -1 -21 -12 -14 -12 -16 3 -10 20 8 20 22 1 67
-8 20 -15 47 -15 61 0 13 -7 27 -16 30 -10 4 -13 13 -9 26 4 11 2 20 -4 20 -6
0 -11 -7 -11 -15z"/>
<path d="M152 595 c0 -16 2 -22 5 -12 2 9 2 23 0 30 -3 6 -5 -1 -5 -18z"/>
<path d="M1562 580 c0 -14 2 -19 5 -12 2 6 2 18 0 25 -3 6 -5 1 -5 -13z"/>
<path d="M5832 570 c0 -14 2 -19 5 -12 2 6 2 18 0 25 -3 6 -5 1 -5 -13z"/>
<path d="M1130 470 c0 -5 5 -10 11 -10 5 0 7 5 4 10 -3 6 -8 10 -11 10 -2 0
-4 -4 -4 -10z"/>
<path d="M4210 444 c0 -10 6 -14 14 -11 10 4 16 -2 19 -16 4 -19 4 -18 6 4 0
16 -5 29 -15 33 -22 9 -24 8 -24 -10z"/>
<path d="M5930 405 c0 -8 2 -15 4 -15 2 0 6 7 10 15 3 8 1 15 -4 15 -6 0 -10
-7 -10 -15z"/>
<path d="M7921 394 c0 -11 3 -14 6 -6 3 7 2 16 -1 19 -3 4 -6 -2 -5 -13z"/>
<path d="M2365 340 c-3 -5 -1 -10 4 -10 6 0 11 5 11 10 0 6 -2 10 -4 10 -3 0
-8 -4 -11 -10z"/>
<path d="M4126 277 c3 -10 9 -15 12 -12 3 3 0 11 -7 18 -10 9 -11 8 -5 -6z"/>
<path d="M2532 225 c0 -16 2 -22 5 -12 2 9 2 23 0 30 -3 6 -5 -1 -5 -18z"/>
<path d="M4108 243 c7 -3 16 -2 19 1 4 3 -2 6 -13 5 -11 0 -14 -3 -6 -6z"/>
<path d="M5912 230 c0 -14 2 -19 5 -12 2 6 2 18 0 25 -3 6 -5 1 -5 -13z"/>
<path d="M2552 205 c0 -16 2 -22 5 -12 2 9 2 23 0 30 -3 6 -5 -1 -5 -18z"/>
<path d="M4120 220 c-13 -9 -13 -12 3 -21 9 -6 14 -15 10 -22 -11 -18 -13 -57
-2 -57 18 0 9 -39 -12 -45 -15 -5 -18 -10 -9 -20 6 -7 10 -22 8 -32 -2 -14 5
-19 35 -21 20 -2 37 -2 37 1 0 2 -7 27 -15 55 -9 29 -15 58 -14 65 4 19 -13
107 -20 107 -3 0 -13 -5 -21 -10z"/>
<path d="M2657 199 c7 -7 15 -10 18 -7 3 3 -2 9 -12 12 -14 6 -15 5 -6 -5z"/>
<path d="M3040 190 c-22 -17 -23 -19 -7 -26 21 -8 30 -1 32 26 1 11 1 20 1 20
-1 0 -12 -9 -26 -20z m17 -16 c-3 -3 -12 -4 -19 -1 -8 3 -5 6 6 6 11 1 17 -2
13 -5z"/>
<path d="M1053 163 c-15 -6 -17 -33 -3 -33 6 0 10 -7 10 -15 0 -9 9 -15 21
-15 18 0 19 2 9 15 -9 11 -10 18 -1 28 17 22 -4 34 -36 20z"/>
<path d="M1990 158 c0 -9 5 -20 10 -23 13 -8 13 5 0 25 -8 13 -10 13 -10 -2z"/>
<path d="M2115 80 c2 -41 1 -70 -3 -65 -11 16 -49 16 -63 -1 -10 -12 -4 -14
38 -14 l49 0 2 36 c2 25 -1 34 -9 28 -8 -5 -10 0 -7 17 3 13 2 35 -3 49 -6 16
-7 -1 -4 -50z"/>
<path d="M1950 106 c0 -14 5 -26 10 -26 6 0 10 9 10 19 0 11 -4 23 -10 26 -6
4 -10 -5 -10 -19z"/>
<path d="M2701 90 c0 -32 2 -40 9 -29 5 9 6 28 0 45 -8 27 -8 26 -9 -16z"/>
<path d="M2015 111 c-3 -5 -1 -12 5 -16 5 -3 10 1 10 9 0 18 -6 21 -15 7z"/>
<path d="M3053 103 c-10 -4 -9 -9 3 -20 17 -18 30 -11 17 10 -4 8 -14 12 -20
10z"/>
<path d="M3120 100 c0 -5 9 -10 21 -10 11 0 17 5 14 10 -3 6 -13 10 -21 10 -8
0 -14 -4 -14 -10z"/>
<path d="M2231 84 c0 -11 3 -14 6 -6 3 7 2 16 -1 19 -3 4 -6 -2 -5 -13z"/>
<path d="M1877 84 c-13 -13 -7 -24 14 -24 11 0 19 5 17 12 -5 14 -22 21 -31
12z"/>
<path d="M3280 80 c0 -5 5 -10 10 -10 6 0 10 5 10 10 0 6 -4 10 -10 10 -5 0
-10 -4 -10 -10z"/>
<path d="M3298 56 c-18 -13 -25 -46 -10 -46 20 1 43 29 35 43 -7 13 -11 13
-25 3z"/>
<path d="M988 53 c7 -3 16 -2 19 1 4 3 -2 6 -13 5 -11 0 -14 -3 -6 -6z"/>
<path d="M2017 44 c-10 -10 -9 -44 2 -44 13 0 23 32 13 42 -5 5 -11 5 -15 2z"/>
<path d="M5910 24 c0 -14 4 -23 9 -20 5 3 7 15 4 26 -7 28 -13 25 -13 -6z"/>
<path d="M1863 33 c-19 -7 -16 -20 6 -26 14 -3 17 0 14 14 -3 11 -6 19 -7 18
0 0 -7 -3 -13 -6z"/>
<path d="M1968 26 c-24 -18 -22 -24 7 -22 17 1 25 7 25 19 0 20 -9 21 -32 3z"/>
<path d="M880 21 c0 -6 4 -13 10 -16 6 -3 7 1 4 9 -7 18 -14 21 -14 7z"/>
<path d="M3085 21 c-3 -5 -1 -12 5 -16 5 -3 10 1 10 9 0 18 -6 21 -15 7z"/>
<path d="M5010 15 c0 -9 9 -15 21 -15 18 0 19 2 5 15 -8 8 -17 15 -20 15 -3 0
-6 -7 -6 -15z"/>
<path d="M3340 16 c0 -2 7 -7 16 -10 8 -3 12 -2 9 4 -6 10 -25 14 -25 6z"/>
</g>
</svg>
